<svg width="960" height="925" viewBox="0 0 960 925" fill="none" xmlns="http://www.w3.org/2000/svg">
<rect x="0.5" y="0.5" width="119" height="119" fill="#333333" stroke="#CDCDCD"/>
<rect x="0.5" y="120.5" width="119" height="119" fill="#333333" stroke="#CDCDCD"/>
<rect x="0.5" y="240.5" width="119" height="119" fill="#333333" stroke="#CDCDCD"/>
<rect x="0.5" y="360.5" width="119" height="119" fill="#333333" stroke="#CDCDCD"/>
<rect x="0.5" y="480.5" width="119" height="119" fill="#333333" stroke="#CDCDCD"/>
<rect x="0.5" y="600.5" width="119" height="119" fill="#333333" stroke="#CDCDCD"/>
<rect x="0.5" y="720.5" width="119" height="119" fill="#333333" stroke="#CDCDCD"/>
<rect x="0.5" y="840.5" width="119" height="119" fill="#333333" stroke="#CDCDCD"/>
<rect x="480.5" y="0.5" width="119" height="119" fill="#333333" stroke="#CDCDCD"/>
<rect x="480.5" y="120.5" width="119" height="119" fill="#333333" stroke="#CDCDCD"/>
<rect x="480.5" y="240.5" width="119" height="119" fill="#333333" stroke="#CDCDCD"/>
<rect x="480.5" y="360.5" width="119" height="119" fill="#333333" stroke="#CDCDCD"/>
<rect x="480.5" y="480.5" width="119" height="119" fill="#333333" stroke="#CDCDCD"/>
<rect x="480.5" y="600.5" width="119" height="119" fill="#333333" stroke="#CDCDCD"/>
<rect x="480.5" y="720.5" width="119" height="119" fill="#333333" stroke="#CDCDCD"/>
<rect x="480.5" y="840.5" width="119" height="119" fill="#333333" stroke="#CDCDCD"/>
<rect x="240.5" y="0.5" width="119" height="119" fill="#333333" stroke="#CDCDCD"/>
<rect x="240.5" y="120.5" width="119" height="119" fill="#333333" stroke="#CDCDCD"/>
<rect x="240.5" y="240.5" width="119" height="119" fill="#333333" stroke="#CDCDCD"/>
<rect x="240.5" y="360.5" width="119" height="119" fill="#333333" stroke="#CDCDCD"/>
<rect x="240.5" y="480.5" width="119" height="119" fill="#333333" stroke="#CDCDCD"/>
<rect x="240.5" y="600.5" width="119" height="119" fill="#333333" stroke="#CDCDCD"/>
<rect x="240.5" y="720.5" width="119" height="119" fill="#333333" stroke="#CDCDCD"/>
<rect x="240.5" y="840.5" width="119" height="119" fill="#333333" stroke="#CDCDCD"/>
<rect x="720.5" y="0.5" width="119" height="119" fill="#333333" stroke="#CDCDCD"/>
<rect x="720.5" y="120.5" width="119" height="119" fill="#333333" stroke="#CDCDCD"/>
<rect x="720.5" y="240.5" width="119" height="119" fill="#333333" stroke="#CDCDCD"/>
<rect x="720.5" y="360.5" width="119" height="119" fill="#333333" stroke="#CDCDCD"/>
<rect x="720.5" y="480.5" width="119" height="119" fill="#333333" stroke="#CDCDCD"/>
<rect x="720.5" y="600.5" width="119" height="119" fill="#333333" stroke="#CDCDCD"/>
<rect x="720.5" y="720.5" width="119" height="119" fill="#333333" stroke="#CDCDCD"/>
<rect x="720.5" y="840.5" width="119" height="119" fill="#333333" stroke="#CDCDCD"/>
<rect x="120.5" y="0.5" width="119" height="119" fill="#333333" stroke="#CDCDCD"/>
<rect x="120.5" y="120.5" width="119" height="119" fill="#333333" stroke="#CDCDCD"/>
<rect x="120.5" y="240.5" width="119" height="119" fill="#333333" stroke="#CDCDCD"/>
<rect x="120.5" y="360.5" width="119" height="119" fill="#333333" stroke="#CDCDCD"/>
<rect x="120.5" y="480.5" width="119" height="119" fill="#333333" stroke="#CDCDCD"/>
<rect x="120.5" y="720.5" width="119" height="119" fill="#333333" stroke="#CDCDCD"/>
<rect x="120.5" y="840.5" width="119" height="119" fill="#333333" stroke="#CDCDCD"/>
<rect x="600.5" y="0.5" width="119" height="119" fill="#333333" stroke="#CDCDCD"/>
<rect x="600.5" y="120.5" width="119" height="119" fill="#333333" stroke="#CDCDCD"/>
<rect x="600.5" y="240.5" width="119" height="119" fill="#333333" stroke="#CDCDCD"/>
<rect x="600.5" y="360.5" width="119" height="119" fill="#333333" stroke="#CDCDCD"/>
<rect x="600.5" y="480.5" width="119" height="119" fill="#333333" stroke="#CDCDCD"/>
<rect x="600.5" y="600.5" width="119" height="119" fill="#333333" stroke="#CDCDCD"/>
<rect x="600.5" y="720.5" width="119" height="119" fill="#333333" stroke="#CDCDCD"/>
<rect x="600.5" y="840.5" width="119" height="119" fill="#333333" stroke="#CDCDCD"/>
<rect x="360.5" y="0.5" width="119" height="119" fill="#333333" stroke="#CDCDCD"/>
<rect x="360.5" y="120.5" width="119" height="119" fill="#333333" stroke="#CDCDCD"/>
<rect x="360.5" y="240.5" width="119" height="119" fill="#333333" stroke="#CDCDCD"/>
<rect x="360.5" y="360.5" width="119" height="119" fill="#333333" stroke="#CDCDCD"/>
<rect x="360.5" y="480.5" width="119" height="119" fill="#333333" stroke="#CDCDCD"/>
<rect x="360.5" y="600.5" width="119" height="119" fill="#333333" stroke="#CDCDCD"/>
<rect x="360.5" y="720.5" width="119" height="119" fill="#333333" stroke="#CDCDCD"/>
<rect x="360.5" y="840.5" width="119" height="119" fill="#333333" stroke="#CDCDCD"/>
<rect x="840.5" y="0.5" width="119" height="119" fill="#333333" stroke="#CDCDCD"/>
<rect x="840.5" y="120.5" width="119" height="119" fill="#333333" stroke="#CDCDCD"/>
<rect x="840.5" y="240.5" width="119" height="119" fill="#333333" stroke="#CDCDCD"/>
<rect x="840.5" y="360.5" width="119" height="119" fill="#333333" stroke="#CDCDCD"/>
<rect x="840.5" y="480.5" width="119" height="119" fill="#333333" stroke="#CDCDCD"/>
<rect x="840.5" y="600.5" width="119" height="119" fill="#333333" stroke="#CDCDCD"/>
<rect x="840.5" y="720.5" width="119" height="119" fill="#333333" stroke="#CDCDCD"/>
<rect x="840.5" y="840.5" width="119" height="119" fill="#333333" stroke="#CDCDCD"/>
<path d="M239.5 600.5V719.5H120.5V600.5H239.5Z" fill="#333333" stroke="#CDCDCD"/>
<circle cx="120.5" cy="119.5" r="14.5" fill="#E74C3C"/>
<path d="M120.21 126.209C119.32 126.209 118.475 126.07 117.674 125.791C116.879 125.508 116.173 125.063 115.556 124.456C114.94 123.85 114.455 123.059 114.102 122.085C113.754 121.11 113.583 119.93 113.588 118.543C113.593 117.305 113.752 116.191 114.065 115.202C114.383 114.212 114.833 113.37 115.415 112.674C116.001 111.978 116.702 111.446 117.518 111.078C118.333 110.705 119.24 110.518 120.24 110.518C121.363 110.518 122.352 110.735 123.208 111.167C124.063 111.6 124.744 112.179 125.251 112.905C125.763 113.626 126.061 114.421 126.146 115.291H122.059C121.965 114.859 121.746 114.543 121.403 114.344C121.065 114.14 120.677 114.038 120.24 114.038C119.37 114.038 118.731 114.416 118.323 115.172C117.92 115.928 117.714 116.922 117.704 118.155H117.794C117.987 117.687 118.281 117.287 118.674 116.954C119.066 116.621 119.524 116.365 120.046 116.186C120.568 116.007 121.12 115.918 121.701 115.918C122.626 115.918 123.434 116.126 124.125 116.544C124.821 116.962 125.363 117.533 125.751 118.259C126.138 118.985 126.33 119.815 126.325 120.75C126.33 121.844 126.071 122.801 125.549 123.621C125.032 124.441 124.314 125.078 123.394 125.53C122.474 125.983 121.413 126.209 120.21 126.209ZM120.18 123.077C120.593 123.077 120.958 122.982 121.276 122.793C121.599 122.604 121.85 122.346 122.029 122.018C122.213 121.69 122.303 121.317 122.298 120.899C122.303 120.477 122.213 120.104 122.029 119.781C121.85 119.452 121.599 119.194 121.276 119.005C120.958 118.816 120.593 118.722 120.18 118.722C119.877 118.722 119.596 118.776 119.337 118.886C119.084 118.99 118.862 119.142 118.674 119.341C118.485 119.534 118.335 119.766 118.226 120.034C118.122 120.298 118.067 120.586 118.062 120.899C118.067 121.317 118.161 121.69 118.345 122.018C118.529 122.346 118.78 122.604 119.099 122.793C119.417 122.982 119.777 123.077 120.18 123.077Z" fill="white"/>
<circle cx="719.5" cy="119.5" r="14.5" fill="#E74C3C"/>
<path d="M719.105 126.209C717.932 126.209 716.89 126.002 715.981 125.59C715.076 125.172 714.362 124.598 713.84 123.867C713.323 123.136 713.06 122.296 713.05 121.347H717.077C717.092 121.874 717.296 122.294 717.688 122.607C718.086 122.92 718.558 123.077 719.105 123.077C719.528 123.077 719.901 122.987 720.224 122.808C720.547 122.624 720.801 122.366 720.985 122.033C721.169 121.7 721.258 121.312 721.253 120.869C721.258 120.422 721.169 120.034 720.985 119.706C720.801 119.373 720.547 119.117 720.224 118.938C719.901 118.754 719.528 118.662 719.105 118.662C718.668 118.662 718.263 118.769 717.89 118.983C717.522 119.191 717.251 119.482 717.077 119.855L713.438 119.139L714.034 110.727H724.296V114.038H717.435L717.137 117.409H717.226C717.465 116.947 717.877 116.564 718.464 116.261C719.051 115.952 719.732 115.798 720.507 115.798C721.417 115.798 722.227 116.01 722.938 116.432C723.654 116.855 724.219 117.439 724.631 118.185C725.049 118.925 725.255 119.781 725.25 120.75C725.255 121.814 725.002 122.759 724.49 123.584C723.982 124.404 723.269 125.048 722.349 125.515C721.43 125.978 720.348 126.209 719.105 126.209Z" fill="white"/>
<circle cx="719.5" cy="599.5" r="14.5" fill="#E74C3C"/>
<path d="M712.492 603.614V600.392L718.637 590.727H721.561V595.023H719.89L716.579 600.273V600.392H725.647V603.614H712.492ZM719.92 606V602.629L720.01 601.227V590.727H723.887V606H719.92Z" fill="white"/>
<circle cx="360.5" cy="599.5" r="14.5" fill="#E74C3C"/>
<path d="M359.895 607.209C358.692 607.209 357.623 607.002 356.688 606.59C355.758 606.172 355.027 605.598 354.496 604.867C353.964 604.136 353.695 603.296 353.69 602.347H357.866C357.871 602.64 357.961 602.903 358.135 603.137C358.314 603.366 358.557 603.545 358.866 603.674C359.174 603.803 359.527 603.868 359.924 603.868C360.307 603.868 360.645 603.801 360.939 603.667C361.232 603.527 361.461 603.336 361.625 603.092C361.789 602.849 361.868 602.57 361.863 602.257C361.868 601.949 361.774 601.675 361.58 601.437C361.391 601.198 361.125 601.012 360.782 600.877C360.439 600.743 360.044 600.676 359.596 600.676H358.045V597.812H359.596C360.009 597.812 360.372 597.745 360.685 597.611C361.003 597.477 361.249 597.29 361.423 597.052C361.602 596.813 361.689 596.54 361.684 596.232C361.689 595.933 361.617 595.67 361.468 595.441C361.319 595.212 361.11 595.033 360.842 594.904C360.578 594.775 360.273 594.71 359.924 594.71C359.547 594.71 359.209 594.777 358.91 594.912C358.617 595.046 358.386 595.232 358.217 595.471C358.048 595.71 357.961 595.983 357.956 596.291H353.988C353.993 595.357 354.249 594.531 354.757 593.815C355.269 593.099 355.97 592.538 356.86 592.13C357.749 591.722 358.771 591.518 359.924 591.518C361.053 591.518 362.05 591.71 362.915 592.093C363.785 592.475 364.464 593.002 364.951 593.674C365.443 594.34 365.687 595.103 365.682 595.963C365.692 596.818 365.398 597.519 364.802 598.066C364.21 598.613 363.459 598.936 362.549 599.036V599.155C363.782 599.289 364.71 599.667 365.331 600.288C365.953 600.905 366.258 601.68 366.248 602.615C366.253 603.51 365.985 604.303 365.443 604.994C364.906 605.685 364.158 606.227 363.198 606.62C362.244 607.012 361.143 607.209 359.895 607.209Z" fill="white"/>
<circle cx="360.5" cy="360.5" r="14.5" fill="#E74C3C"/>
<path d="M354.226 367V364.017L359.924 359.304C360.301 358.991 360.625 358.697 360.893 358.424C361.166 358.146 361.375 357.86 361.519 357.566C361.669 357.273 361.743 356.947 361.743 356.589C361.743 356.197 361.659 355.861 361.49 355.583C361.326 355.304 361.097 355.091 360.804 354.941C360.51 354.787 360.172 354.71 359.789 354.71C359.407 354.71 359.068 354.787 358.775 354.941C358.487 355.096 358.263 355.322 358.104 355.62C357.945 355.918 357.865 356.281 357.865 356.709H353.928C353.928 355.635 354.169 354.71 354.651 353.935C355.133 353.159 355.815 352.562 356.695 352.145C357.574 351.727 358.606 351.518 359.789 351.518C361.012 351.518 362.071 351.715 362.966 352.108C363.866 352.495 364.56 353.042 365.047 353.748C365.539 354.454 365.785 355.282 365.785 356.232C365.785 356.818 365.663 357.402 365.42 357.984C365.176 358.561 364.739 359.2 364.107 359.901C363.476 360.602 362.578 361.437 361.415 362.406L359.983 363.599V363.689H365.949V367H354.226Z" fill="white"/>
<circle cx="479.5" cy="360.5" r="14.5" fill="#E74C3C"/>
<path d="M482.19 351.727V367H478.044V355.545H477.954L474.613 357.544V354.024L478.372 351.727H482.19Z" fill="white"/>
<circle cx="479" cy="465" r="5" fill="#FEFEFE"/>
<path d="M503.636 465.235C498.748 456.988 489.769 451.463 479.5 451.463C464.025 451.463 451.463 464.009 451.463 479.5C451.463 494.975 464.009 507.537 479.5 507.537C489.769 507.537 498.748 502.012 503.62 493.781L479.293 479.516L503.636 465.235ZM475.822 465.06C475.822 463.149 477.367 461.589 479.293 461.589C481.219 461.589 482.764 463.133 482.764 465.06C482.764 466.986 481.219 468.53 479.293 468.53C477.367 468.53 475.822 466.97 475.822 465.06Z" fill="#EFCE2B"/>
</svg>
