<svg width="288" height="56" viewBox="0 0 288 56" fill="none" xmlns="http://www.w3.org/2000/svg">
<rect x="0.5" y="0.5" width="287" height="55" rx="11.5" stroke="#005BA9"/>
<path d="M263 31.4L257 25.4L258.4 24L263 28.6L267.6 24L269 25.4L263 31.4Z" fill="#1F1F1F"/>
<line x1="164" y1="41.5" x2="239" y2="41.5" stroke="black"/>
<path d="M190.24 33.179C189.756 33.179 189.317 33.0878 188.922 32.9055C188.528 32.7199 188.215 32.4531 187.983 32.1051C187.751 31.7538 187.635 31.3295 187.635 30.8324C187.635 30.3949 187.721 30.0402 187.893 29.7685C188.066 29.4934 188.296 29.2779 188.584 29.1222C188.873 28.9664 189.191 28.8504 189.539 28.7741C189.89 28.6946 190.243 28.6316 190.598 28.5852C191.062 28.5256 191.438 28.4808 191.726 28.451C192.018 28.4179 192.23 28.3632 192.363 28.2869C192.499 28.2107 192.567 28.0781 192.567 27.8892V27.8494C192.567 27.3589 192.432 26.9777 192.164 26.706C191.899 26.4342 191.496 26.2983 190.956 26.2983C190.396 26.2983 189.957 26.4209 189.638 26.6662C189.32 26.9115 189.097 27.1733 188.967 27.4517L187.854 27.054C188.052 26.59 188.318 26.2287 188.649 25.9702C188.984 25.7083 189.348 25.526 189.743 25.4233C190.141 25.3172 190.532 25.2642 190.916 25.2642C191.161 25.2642 191.443 25.294 191.761 25.3537C192.083 25.41 192.393 25.5277 192.691 25.7067C192.993 25.8857 193.243 26.1558 193.442 26.517C193.641 26.8783 193.74 27.3622 193.74 27.9688V33H192.567V31.9659H192.507C192.427 32.1316 192.295 32.3089 192.109 32.4979C191.924 32.6868 191.677 32.8475 191.369 32.9801C191.06 33.1127 190.684 33.179 190.24 33.179ZM190.419 32.125C190.883 32.125 191.274 32.0339 191.592 31.8516C191.914 31.6693 192.156 31.4339 192.318 31.1456C192.484 30.8572 192.567 30.554 192.567 30.2358V29.1619C192.517 29.2216 192.408 29.2763 192.239 29.326C192.073 29.3724 191.881 29.4138 191.662 29.4503C191.446 29.4834 191.236 29.5133 191.03 29.5398C190.828 29.563 190.664 29.5829 190.538 29.5994C190.233 29.6392 189.948 29.7038 189.683 29.7933C189.421 29.8795 189.209 30.0104 189.047 30.1861C188.888 30.3584 188.808 30.5937 188.808 30.892C188.808 31.2997 188.959 31.608 189.261 31.8168C189.565 32.0223 189.952 32.125 190.419 32.125ZM198.984 33.1591C198.268 33.1591 197.651 32.9901 197.134 32.652C196.617 32.3139 196.22 31.8482 195.941 31.255C195.663 30.6617 195.524 29.9839 195.524 29.2216C195.524 28.446 195.666 27.7616 195.951 27.1683C196.239 26.5717 196.64 26.1061 197.154 25.7713C197.671 25.4332 198.274 25.2642 198.964 25.2642C199.501 25.2642 199.985 25.3636 200.416 25.5625C200.846 25.7614 201.199 26.0398 201.475 26.3977C201.75 26.7557 201.92 27.1733 201.987 27.6506H200.813C200.724 27.3026 200.525 26.9943 200.217 26.7259C199.912 26.4541 199.501 26.3182 198.984 26.3182C198.526 26.3182 198.125 26.4375 197.781 26.6761C197.439 26.9115 197.172 27.2446 196.98 27.6754C196.791 28.103 196.697 28.6051 196.697 29.1818C196.697 29.7718 196.79 30.2855 196.975 30.723C197.164 31.1605 197.429 31.5002 197.771 31.7422C198.115 31.9841 198.52 32.1051 198.984 32.1051C199.289 32.1051 199.565 32.0521 199.814 31.946C200.063 31.84 200.273 31.6875 200.445 31.4886C200.618 31.2898 200.74 31.0511 200.813 30.7727H201.987C201.92 31.2235 201.756 31.6295 201.494 31.9908C201.236 32.3487 200.893 32.6338 200.465 32.8459C200.041 33.0547 199.547 33.1591 198.984 33.1591ZM207.023 25.3636V26.358H203.065V25.3636H207.023ZM204.219 23.5341H205.392V30.8125C205.392 31.1439 205.44 31.3925 205.536 31.5582C205.636 31.7206 205.762 31.83 205.914 31.8864C206.07 31.9394 206.234 31.9659 206.406 31.9659C206.536 31.9659 206.642 31.9593 206.725 31.946C206.807 31.9295 206.874 31.9162 206.923 31.9062L207.162 32.9602C207.082 32.9901 206.971 33.0199 206.829 33.0497C206.686 33.0829 206.506 33.0994 206.287 33.0994C205.956 33.0994 205.631 33.0282 205.313 32.8857C204.998 32.7431 204.736 32.526 204.527 32.2344C204.322 31.9427 204.219 31.5748 204.219 31.1307V23.5341ZM208.788 33V25.3636H209.961V33H208.788ZM209.384 24.0909C209.156 24.0909 208.958 24.013 208.793 23.8572C208.63 23.7015 208.549 23.5142 208.549 23.2955C208.549 23.0767 208.63 22.8894 208.793 22.7337C208.958 22.5779 209.156 22.5 209.384 22.5C209.613 22.5 209.809 22.5779 209.971 22.7337C210.137 22.8894 210.22 23.0767 210.22 23.2955C210.22 23.5142 210.137 23.7015 209.971 23.8572C209.809 24.013 209.613 24.0909 209.384 24.0909ZM215.511 25.3636V26.358H211.394V25.3636H215.511ZM212.627 33V24.3097C212.627 23.8722 212.73 23.5076 212.935 23.2159C213.141 22.9242 213.408 22.7055 213.736 22.5597C214.064 22.4138 214.41 22.3409 214.775 22.3409C215.063 22.3409 215.298 22.3641 215.481 22.4105C215.663 22.4569 215.799 22.5 215.888 22.5398L215.55 23.554C215.491 23.5341 215.408 23.5092 215.302 23.4794C215.199 23.4496 215.063 23.4347 214.894 23.4347C214.506 23.4347 214.226 23.5324 214.054 23.728C213.885 23.9235 213.8 24.2102 213.8 24.5881V33H212.627Z" fill="black"/>
<path d="M53.4148 33H50.1186V22.8182H53.5192C54.5168 22.8182 55.3736 23.022 56.0895 23.4297C56.8054 23.834 57.3539 24.4157 57.7351 25.1747C58.1196 25.9304 58.3118 26.8369 58.3118 27.8942C58.3118 28.9548 58.1179 29.8662 57.7301 30.6286C57.3456 31.3909 56.7888 31.9775 56.0597 32.3885C55.3305 32.7962 54.4489 33 53.4148 33ZM51.6548 31.6577H53.3303C54.1058 31.6577 54.7505 31.5118 55.2642 31.2202C55.7779 30.9252 56.1624 30.4993 56.4176 29.9425C56.6728 29.3823 56.8004 28.6996 56.8004 27.8942C56.8004 27.0954 56.6728 26.4176 56.4176 25.8608C56.1657 25.304 55.7895 24.8814 55.2891 24.593C54.7886 24.3047 54.1671 24.1605 53.4247 24.1605H51.6548V31.6577ZM63.394 33.1541C62.6416 33.1541 61.9937 32.9934 61.4501 32.6719C60.9099 32.3471 60.4922 31.8913 60.1973 31.3047C59.9056 30.7147 59.7598 30.0237 59.7598 29.2315C59.7598 28.4493 59.9056 27.7599 60.1973 27.1634C60.4922 26.5668 60.9032 26.1011 61.4302 25.7663C61.9605 25.4316 62.5803 25.2642 63.2896 25.2642C63.7205 25.2642 64.1381 25.3355 64.5424 25.478C64.9468 25.6205 65.3097 25.8442 65.6312 26.1491C65.9527 26.4541 66.2063 26.8501 66.3919 27.3374C66.5775 27.8213 66.6703 28.4096 66.6703 29.1023V29.6293H60.6V28.5156H65.2136C65.2136 28.1245 65.1341 27.7782 64.975 27.4766C64.8159 27.1716 64.5922 26.9313 64.3038 26.7557C64.0188 26.58 63.684 26.4922 63.2995 26.4922C62.8819 26.4922 62.5173 26.5949 62.2058 26.8004C61.8975 27.0026 61.6589 27.2678 61.4899 27.5959C61.3242 27.9207 61.2413 28.2737 61.2413 28.6548V29.5249C61.2413 30.0353 61.3308 30.4695 61.5098 30.8274C61.6921 31.1854 61.9456 31.4588 62.2704 31.6477C62.5952 31.8333 62.9747 31.9261 63.4089 31.9261C63.6906 31.9261 63.9475 31.8864 64.1795 31.8068C64.4115 31.724 64.612 31.6013 64.7811 31.4389C64.9501 31.2765 65.0794 31.076 65.1689 30.8374L66.5758 31.0909C66.4631 31.5052 66.2609 31.8681 65.9693 32.1797C65.6809 32.4879 65.318 32.7282 64.8805 32.9006C64.4463 33.0696 63.9508 33.1541 63.394 33.1541ZM74.0419 27.228L72.6946 27.4666C72.6383 27.2943 72.5488 27.1302 72.4261 26.9744C72.3068 26.8187 72.1444 26.6911 71.9389 26.5916C71.7334 26.4922 71.4766 26.4425 71.1683 26.4425C70.7474 26.4425 70.3961 26.5369 70.1143 26.7259C69.8326 26.9115 69.6918 27.1518 69.6918 27.4467C69.6918 27.7019 69.7862 27.9074 69.9751 28.0632C70.1641 28.219 70.469 28.3466 70.8899 28.446L72.103 28.7244C72.8056 28.8868 73.3293 29.1371 73.674 29.4751C74.0187 29.8132 74.1911 30.2524 74.1911 30.7926C74.1911 31.25 74.0585 31.6577 73.7933 32.0156C73.5315 32.3703 73.1652 32.6487 72.6946 32.8509C72.2273 33.053 71.6854 33.1541 71.0689 33.1541C70.2138 33.1541 69.5161 32.9718 68.9759 32.6072C68.4356 32.2393 68.1042 31.7173 67.9815 31.0412L69.4183 30.8224C69.5078 31.197 69.6918 31.4804 69.9702 31.6726C70.2486 31.8615 70.6115 31.956 71.0589 31.956C71.5462 31.956 71.9356 31.8549 72.2273 31.6527C72.5189 31.4472 72.6648 31.197 72.6648 30.902C72.6648 30.6634 72.5753 30.4628 72.3963 30.3004C72.2206 30.138 71.9505 30.0154 71.5859 29.9325L70.2933 29.6491C69.5807 29.4867 69.0537 29.2282 68.7124 28.8736C68.3743 28.5189 68.2053 28.0698 68.2053 27.5263C68.2053 27.0755 68.3312 26.6811 68.5831 26.343C68.835 26.005 69.183 25.7415 69.6271 25.5526C70.0713 25.3603 70.58 25.2642 71.1534 25.2642C71.9787 25.2642 72.6283 25.4432 73.1023 25.8011C73.5762 26.1558 73.8894 26.6314 74.0419 27.228ZM81.5478 27.228L80.2005 27.4666C80.1441 27.2943 80.0546 27.1302 79.932 26.9744C79.8127 26.8187 79.6503 26.6911 79.4448 26.5916C79.2393 26.4922 78.9824 26.4425 78.6742 26.4425C78.2533 26.4425 77.9019 26.5369 77.6202 26.7259C77.3385 26.9115 77.1976 27.1518 77.1976 27.4467C77.1976 27.7019 77.2921 27.9074 77.481 28.0632C77.6699 28.219 77.9748 28.3466 78.3958 28.446L79.6088 28.7244C80.3115 28.8868 80.8352 29.1371 81.1799 29.4751C81.5246 29.8132 81.6969 30.2524 81.6969 30.7926C81.6969 31.25 81.5643 31.6577 81.2992 32.0156C81.0373 32.3703 80.6711 32.6487 80.2005 32.8509C79.7331 33.053 79.1912 33.1541 78.5748 33.1541C77.7196 33.1541 77.022 32.9718 76.4817 32.6072C75.9415 32.2393 75.61 31.7173 75.4874 31.0412L76.9242 30.8224C77.0137 31.197 77.1976 31.4804 77.476 31.6726C77.7544 31.8615 78.1174 31.956 78.5648 31.956C79.052 31.956 79.4415 31.8549 79.7331 31.6527C80.0248 31.4472 80.1706 31.197 80.1706 30.902C80.1706 30.6634 80.0811 30.4628 79.9022 30.3004C79.7265 30.138 79.4564 30.0154 79.0918 29.9325L77.7992 29.6491C77.0866 29.4867 76.5596 29.2282 76.2182 28.8736C75.8801 28.5189 75.7111 28.0698 75.7111 27.5263C75.7111 27.0755 75.8371 26.6811 76.089 26.343C76.3408 26.005 76.6889 25.7415 77.133 25.5526C77.5771 25.3603 78.0859 25.2642 78.6593 25.2642C79.4846 25.2642 80.1342 25.4432 80.6081 25.8011C81.0821 26.1558 81.3953 26.6314 81.5478 27.228ZM83.3313 33V25.3636H84.8178V33H83.3313ZM84.082 24.1854C83.8235 24.1854 83.6014 24.0992 83.4158 23.9268C83.2335 23.7512 83.1424 23.5424 83.1424 23.3004C83.1424 23.0552 83.2335 22.8464 83.4158 22.674C83.6014 22.4983 83.8235 22.4105 84.082 22.4105C84.3406 22.4105 84.561 22.4983 84.7433 22.674C84.9289 22.8464 85.0217 23.0552 85.0217 23.3004C85.0217 23.5424 84.9289 23.7512 84.7433 23.9268C84.561 24.0992 84.3406 24.1854 84.082 24.1854ZM88.3042 28.4659V33H86.8176V25.3636H88.2445V26.6065H88.339C88.5146 26.2022 88.7897 25.8774 89.1642 25.6321C89.5421 25.3868 90.0177 25.2642 90.5911 25.2642C91.1114 25.2642 91.5672 25.3736 91.9583 25.5923C92.3494 25.8078 92.6526 26.1293 92.8681 26.5568C93.0835 26.9844 93.1912 27.513 93.1912 28.1428V33H91.7047V28.3217C91.7047 27.7682 91.5605 27.3357 91.2722 27.0241C90.9838 26.7093 90.5878 26.5518 90.084 26.5518C89.7393 26.5518 89.4327 26.6264 89.1642 26.7756C88.8991 26.9247 88.6886 27.1435 88.5328 27.4318C88.3804 27.7169 88.3042 28.0616 88.3042 28.4659Z" fill="black"/>
<path d="M24 29H18V27H24V21H26V27H32V29H26V35H24V29Z" fill="#005BA9"/>
</svg>
