<svg width="288" height="56" viewBox="0 0 288 56" fill="none" xmlns="http://www.w3.org/2000/svg">
<rect x="0.5" y="0.5" width="287" height="55" rx="11.5" stroke="#005BA9"/>
<path d="M263 31.4L257 25.4L258.4 24L263 28.6L267.6 24L269 25.4L263 31.4Z" fill="#1F1F1F"/>
<line x1="164" y1="41.5" x2="239" y2="41.5" stroke="black"/>
<path d="M184.48 33V32.1051L187.841 28.4261C188.235 27.9953 188.56 27.6207 188.815 27.3026C189.07 26.9811 189.259 26.6795 189.382 26.3977C189.508 26.1127 189.571 25.8144 189.571 25.5028C189.571 25.1449 189.484 24.835 189.312 24.5732C189.143 24.3113 188.911 24.1091 188.616 23.9666C188.321 23.8241 187.99 23.7528 187.622 23.7528C187.231 23.7528 186.889 23.834 186.598 23.9964C186.309 24.1555 186.086 24.3793 185.926 24.6676C185.771 24.956 185.693 25.294 185.693 25.6818H184.52C184.52 25.0852 184.657 24.5616 184.932 24.1108C185.207 23.66 185.582 23.3087 186.056 23.0568C186.533 22.8049 187.068 22.679 187.662 22.679C188.258 22.679 188.787 22.8049 189.248 23.0568C189.708 23.3087 190.069 23.6484 190.331 24.076C190.593 24.5036 190.724 24.9792 190.724 25.5028C190.724 25.8774 190.656 26.2436 190.52 26.6016C190.388 26.9562 190.156 27.3523 189.824 27.7898C189.496 28.224 189.04 28.7543 188.457 29.3807L186.17 31.8267V31.9062H190.903V33H184.48ZM196.914 35.8636V25.3636H198.047V26.5767H198.186C198.273 26.4441 198.392 26.2751 198.544 26.0696C198.7 25.8608 198.922 25.6752 199.211 25.5128C199.502 25.3471 199.897 25.2642 200.394 25.2642C201.037 25.2642 201.604 25.425 202.094 25.7464C202.585 26.0679 202.967 26.5237 203.243 27.1136C203.518 27.7036 203.655 28.3996 203.655 29.2017C203.655 30.0104 203.518 30.7114 203.243 31.3047C202.967 31.8946 202.586 32.352 202.099 32.6768C201.612 32.9983 201.05 33.1591 200.414 33.1591C199.923 33.1591 199.53 33.0779 199.235 32.9155C198.94 32.7498 198.713 32.5625 198.554 32.3537C198.395 32.1416 198.273 31.9659 198.186 31.8267H198.087V35.8636H196.914ZM198.067 29.1818C198.067 29.7585 198.152 30.2673 198.321 30.7081C198.49 31.1456 198.737 31.4886 199.061 31.7372C199.386 31.9825 199.784 32.1051 200.255 32.1051C200.745 32.1051 201.154 31.9759 201.483 31.7173C201.814 31.4555 202.063 31.1042 202.228 30.6634C202.397 30.2192 202.482 29.7254 202.482 29.1818C202.482 28.6449 202.399 28.161 202.233 27.7301C202.071 27.2959 201.824 26.9529 201.493 26.701C201.164 26.4458 200.752 26.3182 200.255 26.3182C199.777 26.3182 199.376 26.4392 199.051 26.6811C198.727 26.9197 198.481 27.2545 198.316 27.6854C198.15 28.1129 198.067 28.6117 198.067 29.1818ZM207.692 33.179C207.208 33.179 206.769 33.0878 206.375 32.9055C205.98 32.7199 205.667 32.4531 205.435 32.1051C205.203 31.7538 205.087 31.3295 205.087 30.8324C205.087 30.3949 205.173 30.0402 205.346 29.7685C205.518 29.4934 205.748 29.2779 206.037 29.1222C206.325 28.9664 206.643 28.8504 206.991 28.7741C207.342 28.6946 207.695 28.6316 208.05 28.5852C208.514 28.5256 208.89 28.4808 209.179 28.451C209.47 28.4179 209.682 28.3632 209.815 28.2869C209.951 28.2107 210.019 28.0781 210.019 27.8892V27.8494C210.019 27.3589 209.885 26.9777 209.616 26.706C209.351 26.4342 208.948 26.2983 208.408 26.2983C207.848 26.2983 207.409 26.4209 207.091 26.6662C206.772 26.9115 206.549 27.1733 206.419 27.4517L205.306 27.054C205.505 26.59 205.77 26.2287 206.101 25.9702C206.436 25.7083 206.801 25.526 207.195 25.4233C207.593 25.3172 207.984 25.2642 208.368 25.2642C208.614 25.2642 208.895 25.294 209.213 25.3537C209.535 25.41 209.845 25.5277 210.143 25.7067C210.445 25.8857 210.695 26.1558 210.894 26.517C211.093 26.8783 211.192 27.3622 211.192 27.9688V33H210.019V31.9659H209.959C209.88 32.1316 209.747 32.3089 209.561 32.4979C209.376 32.6868 209.129 32.8475 208.821 32.9801C208.512 33.1127 208.136 33.179 207.692 33.179ZM207.871 32.125C208.335 32.125 208.726 32.0339 209.044 31.8516C209.366 31.6693 209.608 31.4339 209.77 31.1456C209.936 30.8572 210.019 30.554 210.019 30.2358V29.1619C209.969 29.2216 209.86 29.2763 209.691 29.326C209.525 29.3724 209.333 29.4138 209.114 29.4503C208.899 29.4834 208.688 29.5133 208.483 29.5398C208.28 29.563 208.116 29.5829 207.99 29.5994C207.685 29.6392 207.4 29.7038 207.135 29.7933C206.873 29.8795 206.661 30.0104 206.499 30.1861C206.34 30.3584 206.26 30.5937 206.26 30.892C206.26 31.2997 206.411 31.608 206.713 31.8168C207.018 32.0223 207.404 32.125 207.871 32.125ZM218.743 27.0739L217.689 27.3722C217.622 27.1965 217.525 27.0258 217.395 26.8601C217.269 26.6911 217.097 26.5518 216.878 26.4425C216.66 26.3331 216.38 26.2784 216.038 26.2784C215.571 26.2784 215.181 26.3861 214.87 26.6016C214.562 26.8137 214.407 27.0838 214.407 27.4119C214.407 27.7036 214.514 27.9339 214.726 28.103C214.938 28.272 215.269 28.4129 215.72 28.5256L216.854 28.804C217.536 28.9697 218.045 29.2232 218.38 29.5646C218.715 29.9027 218.882 30.3385 218.882 30.8722C218.882 31.3097 218.756 31.7008 218.504 32.0455C218.256 32.3902 217.907 32.6619 217.46 32.8608C217.013 33.0597 216.492 33.1591 215.899 33.1591C215.12 33.1591 214.475 32.9901 213.965 32.652C213.455 32.3139 213.131 31.8201 212.996 31.1705L214.109 30.892C214.215 31.303 214.416 31.6113 214.711 31.8168C215.009 32.0223 215.398 32.125 215.879 32.125C216.426 32.125 216.86 32.009 217.182 31.777C217.506 31.5417 217.669 31.2599 217.669 30.9318C217.669 30.6667 217.576 30.4446 217.39 30.2656C217.205 30.0833 216.92 29.9474 216.535 29.858L215.263 29.5597C214.563 29.3939 214.05 29.1371 213.721 28.7891C213.397 28.4377 213.234 27.9986 213.234 27.4716C213.234 27.0407 213.355 26.6596 213.597 26.3281C213.842 25.9967 214.175 25.7365 214.596 25.5476C215.021 25.3587 215.501 25.2642 216.038 25.2642C216.794 25.2642 217.387 25.4299 217.818 25.7614C218.252 26.0928 218.56 26.5303 218.743 27.0739Z" fill="black"/>
<path d="M50.9787 33H49.348L53.0121 22.8182H54.7869L58.451 33H56.8203L53.9418 24.6676H53.8622L50.9787 33ZM51.2521 29.0128H56.5419V30.3054H51.2521V29.0128ZM65.3777 25.3636L62.6085 33H61.0176L58.2434 25.3636H59.8393L61.7733 31.2401H61.8528L63.7818 25.3636H65.3777ZM68.7782 33.169C68.2943 33.169 67.8568 33.0795 67.4657 32.9006C67.0746 32.7183 66.7647 32.4548 66.536 32.1101C66.3107 31.7654 66.198 31.3428 66.198 30.8423C66.198 30.4115 66.2808 30.0568 66.4466 29.7784C66.6123 29.5 66.836 29.2796 67.1177 29.1172C67.3994 28.9548 67.7143 28.8321 68.0623 28.7493C68.4103 28.6664 68.765 28.6035 69.1262 28.5604C69.5836 28.5073 69.9548 28.4643 70.2399 28.4311C70.5249 28.3946 70.7321 28.3366 70.8613 28.2571C70.9906 28.1776 71.0552 28.0483 71.0552 27.8693V27.8345C71.0552 27.4003 70.9326 27.0639 70.6873 26.8253C70.4454 26.5866 70.0841 26.4673 69.6035 26.4673C69.103 26.4673 68.7086 26.5784 68.4203 26.8004C68.1352 27.0192 67.938 27.2628 67.8287 27.5312L66.4316 27.2131C66.5974 26.7491 66.8393 26.3745 67.1575 26.0895C67.479 25.8011 67.8485 25.5923 68.2662 25.4631C68.6838 25.3305 69.1229 25.2642 69.5836 25.2642C69.8886 25.2642 70.2117 25.3007 70.5531 25.3736C70.8978 25.4432 71.2193 25.5724 71.5176 25.7614C71.8192 25.9503 72.0661 26.2204 72.2583 26.5717C72.4506 26.9197 72.5467 27.3722 72.5467 27.929V33H71.095V31.956H71.0353C70.9392 32.1482 70.795 32.3371 70.6028 32.5227C70.4106 32.7083 70.1636 32.8625 69.862 32.9851C69.5604 33.1077 69.1992 33.169 68.7782 33.169ZM69.1014 31.9759C69.5124 31.9759 69.8637 31.8946 70.1554 31.7322C70.4503 31.5698 70.6741 31.3577 70.8265 31.0959C70.9823 30.8307 71.0602 30.5473 71.0602 30.2457V29.2614C71.0072 29.3144 70.9044 29.3641 70.752 29.4105C70.6028 29.4536 70.4321 29.4917 70.2399 29.5249C70.0476 29.5547 69.8604 29.5829 69.6781 29.6094C69.4958 29.6326 69.3433 29.6525 69.2207 29.669C68.9324 29.7055 68.6689 29.7668 68.4302 29.853C68.1949 29.9392 68.006 30.0634 67.8635 30.2259C67.7243 30.3849 67.6547 30.5971 67.6547 30.8622C67.6547 31.2301 67.7905 31.5085 68.0623 31.6974C68.3341 31.883 68.6805 31.9759 69.1014 31.9759ZM76.0131 28.4659V33H74.5266V25.3636H75.9535V26.6065H76.0479C76.2236 26.2022 76.4987 25.8774 76.8732 25.6321C77.2511 25.3868 77.7267 25.2642 78.3001 25.2642C78.8204 25.2642 79.2762 25.3736 79.6673 25.5923C80.0584 25.8078 80.3616 26.1293 80.5771 26.5568C80.7925 26.9844 80.9002 27.513 80.9002 28.1428V33H79.4137V28.3217C79.4137 27.7682 79.2695 27.3357 78.9812 27.0241C78.6928 26.7093 78.2968 26.5518 77.793 26.5518C77.4483 26.5518 77.1417 26.6264 76.8732 26.7756C76.6081 26.9247 76.3976 27.1435 76.2418 27.4318C76.0894 27.7169 76.0131 28.0616 76.0131 28.4659ZM86.1104 33.1541C85.3713 33.1541 84.735 32.9867 84.2013 32.652C83.671 32.3139 83.2634 31.8482 82.9783 31.255C82.6933 30.6617 82.5508 29.9822 82.5508 29.2166C82.5508 28.4411 82.6966 27.7566 82.9883 27.1634C83.2799 26.5668 83.6909 26.1011 84.2212 25.7663C84.7515 25.4316 85.3763 25.2642 86.0955 25.2642C86.6755 25.2642 87.1926 25.3719 87.6467 25.5874C88.1007 25.7995 88.467 26.0978 88.7454 26.4822C89.0271 26.8667 89.1945 27.3158 89.2475 27.8295H87.8008C87.7212 27.4716 87.5389 27.1634 87.2539 26.9048C86.9722 26.6463 86.5943 26.517 86.1204 26.517C85.7061 26.517 85.3432 26.6264 85.0316 26.8452C84.7234 27.0606 84.4831 27.3688 84.3107 27.7699C84.1384 28.1676 84.0522 28.6383 84.0522 29.1818C84.0522 29.7386 84.1367 30.2192 84.3058 30.6236C84.4748 31.0279 84.7134 31.3411 85.0217 31.5632C85.3332 31.7853 85.6995 31.8963 86.1204 31.8963C86.4021 31.8963 86.6573 31.8449 86.886 31.7422C87.118 31.6361 87.3119 31.4853 87.4677 31.2898C87.6268 31.0942 87.7378 30.8589 87.8008 30.5838H89.2475C89.1945 31.0777 89.0337 31.5185 88.7653 31.9062C88.4968 32.294 88.1372 32.599 87.6864 32.821C87.239 33.0431 86.7137 33.1541 86.1104 33.1541ZM94.1284 33.1541C93.376 33.1541 92.728 32.9934 92.1845 32.6719C91.6442 32.3471 91.2266 31.8913 90.9316 31.3047C90.64 30.7147 90.4941 30.0237 90.4941 29.2315C90.4941 28.4493 90.64 27.7599 90.9316 27.1634C91.2266 26.5668 91.6376 26.1011 92.1646 25.7663C92.6949 25.4316 93.3147 25.2642 94.024 25.2642C94.4548 25.2642 94.8725 25.3355 95.2768 25.478C95.6812 25.6205 96.0441 25.8442 96.3656 26.1491C96.6871 26.4541 96.9406 26.8501 97.1262 27.3374C97.3118 27.8213 97.4047 28.4096 97.4047 29.1023V29.6293H91.3343V28.5156H95.948C95.948 28.1245 95.8684 27.7782 95.7093 27.4766C95.5502 27.1716 95.3265 26.9313 95.0382 26.7557C94.7531 26.58 94.4184 26.4922 94.0339 26.4922C93.6163 26.4922 93.2517 26.5949 92.9402 26.8004C92.6319 27.0026 92.3933 27.2678 92.2243 27.5959C92.0585 27.9207 91.9757 28.2737 91.9757 28.6548V29.5249C91.9757 30.0353 92.0652 30.4695 92.2441 30.8274C92.4264 31.1854 92.68 31.4588 93.0048 31.6477C93.3296 31.8333 93.7091 31.9261 94.1433 31.9261C94.425 31.9261 94.6819 31.8864 94.9139 31.8068C95.1459 31.724 95.3464 31.6013 95.5154 31.4389C95.6845 31.2765 95.8137 31.076 95.9032 30.8374L97.3102 31.0909C97.1975 31.5052 96.9953 31.8681 96.7037 32.1797C96.4153 32.4879 96.0524 32.7282 95.6149 32.9006C95.1807 33.0696 94.6852 33.1541 94.1284 33.1541ZM99.054 33V25.3636H100.491V26.5767H100.57C100.71 26.1657 100.955 25.8426 101.306 25.6072C101.661 25.3686 102.062 25.2493 102.509 25.2493C102.602 25.2493 102.711 25.2526 102.837 25.2592C102.967 25.2659 103.068 25.2741 103.141 25.2841V26.706C103.081 26.6894 102.975 26.6712 102.822 26.6513C102.67 26.6281 102.518 26.6165 102.365 26.6165C102.014 26.6165 101.701 26.6911 101.425 26.8402C101.154 26.986 100.938 27.1899 100.779 27.4517C100.62 27.7102 100.54 28.0052 100.54 28.3366V33H99.054Z" fill="black"/>
<path d="M24 29H18V27H24V21H26V27H32V29H26V35H24V29Z" fill="#005BA9"/>
</svg>
