<svg width="32" height="32" viewBox="0 0 32 32" fill="none" xmlns="http://www.w3.org/2000/svg">
<circle cx="16" cy="16" r="16" fill="#D9D9D9"/>
<path d="M16.0855 22.179C15.5486 22.1705 15.0116 22.0682 14.4747 21.8722C13.9378 21.6761 13.4477 21.3459 13.0045 20.8814C12.5613 20.4126 12.2055 19.7798 11.9371 18.983C11.6686 18.1818 11.5344 17.1761 11.5344 15.9659C11.5344 14.8068 11.643 13.7798 11.8604 12.8849C12.0777 11.9858 12.393 11.2294 12.8064 10.6158C13.2197 9.99787 13.7183 9.52912 14.3021 9.20952C14.8902 8.88991 15.5528 8.73011 16.29 8.73011C17.023 8.73011 17.675 8.87713 18.246 9.17116C18.8213 9.46094 19.29 9.86577 19.6523 10.3857C20.0145 10.9055 20.2488 11.5043 20.3554 12.1818H18.7957C18.6508 11.5937 18.3696 11.1058 17.952 10.718C17.5344 10.3303 16.9804 10.1364 16.29 10.1364C15.2758 10.1364 14.4768 10.5774 13.893 11.4595C13.3135 12.3416 13.0216 13.5795 13.0173 15.1733H13.1196C13.3582 14.8111 13.6416 14.5021 13.9697 14.2464C14.3021 13.9865 14.6686 13.7862 15.0692 13.6456C15.4697 13.505 15.8937 13.4347 16.3412 13.4347C17.0912 13.4347 17.7773 13.6222 18.3994 13.9972C19.0216 14.3679 19.5202 14.8814 19.8952 15.5376C20.2702 16.1896 20.4577 16.9375 20.4577 17.7812C20.4577 18.5909 20.2765 19.3324 19.9143 20.0057C19.5521 20.6747 19.0429 21.2074 18.3866 21.6037C17.7346 21.9957 16.9676 22.1875 16.0855 22.179ZM16.0855 20.7727C16.6224 20.7727 17.104 20.6385 17.5301 20.37C17.9605 20.1016 18.2993 19.7415 18.5464 19.2898C18.7979 18.8381 18.9236 18.3352 18.9236 17.7812C18.9236 17.2401 18.8021 16.7479 18.5592 16.3047C18.3206 15.8572 17.9903 15.5014 17.5684 15.2372C17.1508 14.973 16.6736 14.8409 16.1366 14.8409C15.7318 14.8409 15.3547 14.9219 15.0052 15.0838C14.6558 15.2415 14.349 15.4588 14.0848 15.7358C13.8248 16.0128 13.6203 16.3303 13.4711 16.6882C13.322 17.0419 13.2474 17.4148 13.2474 17.8068C13.2474 18.3267 13.3689 18.8125 13.6118 19.2642C13.8589 19.7159 14.1956 20.0803 14.6217 20.3572C15.0521 20.6342 15.54 20.7727 16.0855 20.7727Z" fill="#333333"/>
</svg>
