<svg width="288" height="56" viewBox="0 0 288 56" fill="none" xmlns="http://www.w3.org/2000/svg">
<rect x="0.5" y="0.5" width="287" height="55" rx="11.5" stroke="#005BA9"/>
<path d="M48.9787 32H47.348L51.0121 21.8182H52.7869L56.451 32H54.8203L51.9418 23.6676H51.8622L48.9787 32ZM49.2521 28.0128H54.5419V29.3054H49.2521V28.0128ZM63.3777 24.3636L60.6085 32H59.0176L56.2434 24.3636H57.8393L59.7733 30.2401H59.8528L61.7818 24.3636H63.3777ZM66.7782 32.169C66.2943 32.169 65.8568 32.0795 65.4657 31.9006C65.0746 31.7183 64.7647 31.4548 64.536 31.1101C64.3107 30.7654 64.198 30.3428 64.198 29.8423C64.198 29.4115 64.2808 29.0568 64.4466 28.7784C64.6123 28.5 64.836 28.2796 65.1177 28.1172C65.3994 27.9548 65.7143 27.8321 66.0623 27.7493C66.4103 27.6664 66.765 27.6035 67.1262 27.5604C67.5836 27.5073 67.9548 27.4643 68.2399 27.4311C68.5249 27.3946 68.7321 27.3366 68.8613 27.2571C68.9906 27.1776 69.0552 27.0483 69.0552 26.8693V26.8345C69.0552 26.4003 68.9326 26.0639 68.6873 25.8253C68.4454 25.5866 68.0841 25.4673 67.6035 25.4673C67.103 25.4673 66.7086 25.5784 66.4203 25.8004C66.1352 26.0192 65.938 26.2628 65.8287 26.5312L64.4316 26.2131C64.5974 25.7491 64.8393 25.3745 65.1575 25.0895C65.479 24.8011 65.8485 24.5923 66.2662 24.4631C66.6838 24.3305 67.1229 24.2642 67.5836 24.2642C67.8886 24.2642 68.2117 24.3007 68.5531 24.3736C68.8978 24.4432 69.2193 24.5724 69.5176 24.7614C69.8192 24.9503 70.0661 25.2204 70.2583 25.5717C70.4506 25.9197 70.5467 26.3722 70.5467 26.929V32H69.095V30.956H69.0353C68.9392 31.1482 68.795 31.3371 68.6028 31.5227C68.4106 31.7083 68.1636 31.8625 67.862 31.9851C67.5604 32.1077 67.1992 32.169 66.7782 32.169ZM67.1014 30.9759C67.5124 30.9759 67.8637 30.8946 68.1554 30.7322C68.4503 30.5698 68.6741 30.3577 68.8265 30.0959C68.9823 29.8307 69.0602 29.5473 69.0602 29.2457V28.2614C69.0072 28.3144 68.9044 28.3641 68.752 28.4105C68.6028 28.4536 68.4321 28.4917 68.2399 28.5249C68.0476 28.5547 67.8604 28.5829 67.6781 28.6094C67.4958 28.6326 67.3433 28.6525 67.2207 28.669C66.9324 28.7055 66.6689 28.7668 66.4302 28.853C66.1949 28.9392 66.006 29.0634 65.8635 29.2259C65.7243 29.3849 65.6547 29.5971 65.6547 29.8622C65.6547 30.2301 65.7905 30.5085 66.0623 30.6974C66.3341 30.883 66.6805 30.9759 67.1014 30.9759ZM74.0131 27.4659V32H72.5266V24.3636H73.9535V25.6065H74.0479C74.2236 25.2022 74.4987 24.8774 74.8732 24.6321C75.2511 24.3868 75.7267 24.2642 76.3001 24.2642C76.8204 24.2642 77.2762 24.3736 77.6673 24.5923C78.0584 24.8078 78.3616 25.1293 78.5771 25.5568C78.7925 25.9844 78.9002 26.513 78.9002 27.1428V32H77.4137V27.3217C77.4137 26.7682 77.2695 26.3357 76.9812 26.0241C76.6928 25.7093 76.2968 25.5518 75.793 25.5518C75.4483 25.5518 75.1417 25.6264 74.8732 25.7756C74.6081 25.9247 74.3976 26.1435 74.2418 26.4318C74.0894 26.7169 74.0131 27.0616 74.0131 27.4659ZM84.1104 32.1541C83.3713 32.1541 82.735 31.9867 82.2013 31.652C81.671 31.3139 81.2634 30.8482 80.9783 30.255C80.6933 29.6617 80.5508 28.9822 80.5508 28.2166C80.5508 27.4411 80.6966 26.7566 80.9883 26.1634C81.2799 25.5668 81.6909 25.1011 82.2212 24.7663C82.7515 24.4316 83.3763 24.2642 84.0955 24.2642C84.6755 24.2642 85.1926 24.3719 85.6467 24.5874C86.1007 24.7995 86.467 25.0978 86.7454 25.4822C87.0271 25.8667 87.1945 26.3158 87.2475 26.8295H85.8008C85.7212 26.4716 85.5389 26.1634 85.2539 25.9048C84.9722 25.6463 84.5943 25.517 84.1204 25.517C83.7061 25.517 83.3432 25.6264 83.0316 25.8452C82.7234 26.0606 82.4831 26.3688 82.3107 26.7699C82.1384 27.1676 82.0522 27.6383 82.0522 28.1818C82.0522 28.7386 82.1367 29.2192 82.3058 29.6236C82.4748 30.0279 82.7134 30.3411 83.0217 30.5632C83.3332 30.7853 83.6995 30.8963 84.1204 30.8963C84.4021 30.8963 84.6573 30.8449 84.886 30.7422C85.118 30.6361 85.3119 30.4853 85.4677 30.2898C85.6268 30.0942 85.7378 29.8589 85.8008 29.5838H87.2475C87.1945 30.0777 87.0337 30.5185 86.7653 30.9062C86.4968 31.294 86.1372 31.599 85.6864 31.821C85.239 32.0431 84.7137 32.1541 84.1104 32.1541ZM92.1284 32.1541C91.376 32.1541 90.728 31.9934 90.1845 31.6719C89.6442 31.3471 89.2266 30.8913 88.9316 30.3047C88.64 29.7147 88.4941 29.0237 88.4941 28.2315C88.4941 27.4493 88.64 26.7599 88.9316 26.1634C89.2266 25.5668 89.6376 25.1011 90.1646 24.7663C90.6949 24.4316 91.3147 24.2642 92.024 24.2642C92.4548 24.2642 92.8725 24.3355 93.2768 24.478C93.6812 24.6205 94.0441 24.8442 94.3656 25.1491C94.6871 25.4541 94.9406 25.8501 95.1262 26.3374C95.3118 26.8213 95.4047 27.4096 95.4047 28.1023V28.6293H89.3343V27.5156H93.948C93.948 27.1245 93.8684 26.7782 93.7093 26.4766C93.5502 26.1716 93.3265 25.9313 93.0382 25.7557C92.7531 25.58 92.4184 25.4922 92.0339 25.4922C91.6163 25.4922 91.2517 25.5949 90.9402 25.8004C90.6319 26.0026 90.3933 26.2678 90.2243 26.5959C90.0585 26.9207 89.9757 27.2737 89.9757 27.6548V28.5249C89.9757 29.0353 90.0652 29.4695 90.2441 29.8274C90.4264 30.1854 90.68 30.4588 91.0048 30.6477C91.3296 30.8333 91.7091 30.9261 92.1433 30.9261C92.425 30.9261 92.6819 30.8864 92.9139 30.8068C93.1459 30.724 93.3464 30.6013 93.5154 30.4389C93.6845 30.2765 93.8137 30.076 93.9032 29.8374L95.3102 30.0909C95.1975 30.5052 94.9953 30.8681 94.7037 31.1797C94.4153 31.4879 94.0524 31.7282 93.6149 31.9006C93.1807 32.0696 92.6852 32.1541 92.1284 32.1541ZM97.054 32V24.3636H98.4908V25.5767H98.5703C98.7095 25.1657 98.9548 24.8426 99.3061 24.6072C99.6607 24.3686 100.062 24.2493 100.509 24.2493C100.602 24.2493 100.711 24.2526 100.837 24.2592C100.967 24.2659 101.068 24.2741 101.141 24.2841V25.706C101.081 25.6894 100.975 25.6712 100.822 25.6513C100.67 25.6281 100.518 25.6165 100.365 25.6165C100.014 25.6165 99.7005 25.6911 99.4254 25.8402C99.1536 25.986 98.9382 26.1899 98.7791 26.4517C98.62 26.7102 98.5405 27.0052 98.5405 27.3366V32H97.054Z" fill="black"/>
<path d="M181.48 32V31.1051L184.841 27.4261C185.235 26.9953 185.56 26.6207 185.815 26.3026C186.07 25.9811 186.259 25.6795 186.382 25.3977C186.508 25.1127 186.571 24.8144 186.571 24.5028C186.571 24.1449 186.484 23.835 186.312 23.5732C186.143 23.3113 185.911 23.1091 185.616 22.9666C185.321 22.8241 184.99 22.7528 184.622 22.7528C184.231 22.7528 183.889 22.834 183.598 22.9964C183.309 23.1555 183.086 23.3793 182.926 23.6676C182.771 23.956 182.693 24.294 182.693 24.6818H181.52C181.52 24.0852 181.657 23.5616 181.932 23.1108C182.207 22.66 182.582 22.3087 183.056 22.0568C183.533 21.8049 184.068 21.679 184.662 21.679C185.258 21.679 185.787 21.8049 186.248 22.0568C186.708 22.3087 187.069 22.6484 187.331 23.076C187.593 23.5036 187.724 23.9792 187.724 24.5028C187.724 24.8774 187.656 25.2436 187.52 25.6016C187.388 25.9562 187.156 26.3523 186.824 26.7898C186.496 27.224 186.04 27.7543 185.457 28.3807L183.17 30.8267V30.9062H187.903V32H181.48ZM193.914 34.8636V24.3636H195.047V25.5767H195.186C195.273 25.4441 195.392 25.2751 195.544 25.0696C195.7 24.8608 195.922 24.6752 196.211 24.5128C196.502 24.3471 196.897 24.2642 197.394 24.2642C198.037 24.2642 198.604 24.425 199.094 24.7464C199.585 25.0679 199.967 25.5237 200.243 26.1136C200.518 26.7036 200.655 27.3996 200.655 28.2017C200.655 29.0104 200.518 29.7114 200.243 30.3047C199.967 30.8946 199.586 31.352 199.099 31.6768C198.612 31.9983 198.05 32.1591 197.414 32.1591C196.923 32.1591 196.53 32.0779 196.235 31.9155C195.94 31.7498 195.713 31.5625 195.554 31.3537C195.395 31.1416 195.273 30.9659 195.186 30.8267H195.087V34.8636H193.914ZM195.067 28.1818C195.067 28.7585 195.152 29.2673 195.321 29.7081C195.49 30.1456 195.737 30.4886 196.061 30.7372C196.386 30.9825 196.784 31.1051 197.255 31.1051C197.745 31.1051 198.154 30.9759 198.483 30.7173C198.814 30.4555 199.063 30.1042 199.228 29.6634C199.397 29.2192 199.482 28.7254 199.482 28.1818C199.482 27.6449 199.399 27.161 199.233 26.7301C199.071 26.2959 198.824 25.9529 198.493 25.701C198.164 25.4458 197.752 25.3182 197.255 25.3182C196.777 25.3182 196.376 25.4392 196.051 25.6811C195.727 25.9197 195.481 26.2545 195.316 26.6854C195.15 27.1129 195.067 27.6117 195.067 28.1818ZM204.692 32.179C204.208 32.179 203.769 32.0878 203.375 31.9055C202.98 31.7199 202.667 31.4531 202.435 31.1051C202.203 30.7538 202.087 30.3295 202.087 29.8324C202.087 29.3949 202.173 29.0402 202.346 28.7685C202.518 28.4934 202.748 28.2779 203.037 28.1222C203.325 27.9664 203.643 27.8504 203.991 27.7741C204.342 27.6946 204.695 27.6316 205.05 27.5852C205.514 27.5256 205.89 27.4808 206.179 27.451C206.47 27.4179 206.682 27.3632 206.815 27.2869C206.951 27.2107 207.019 27.0781 207.019 26.8892V26.8494C207.019 26.3589 206.885 25.9777 206.616 25.706C206.351 25.4342 205.948 25.2983 205.408 25.2983C204.848 25.2983 204.409 25.4209 204.091 25.6662C203.772 25.9115 203.549 26.1733 203.419 26.4517L202.306 26.054C202.505 25.59 202.77 25.2287 203.101 24.9702C203.436 24.7083 203.801 24.526 204.195 24.4233C204.593 24.3172 204.984 24.2642 205.368 24.2642C205.614 24.2642 205.895 24.294 206.213 24.3537C206.535 24.41 206.845 24.5277 207.143 24.7067C207.445 24.8857 207.695 25.1558 207.894 25.517C208.093 25.8783 208.192 26.3622 208.192 26.9688V32H207.019V30.9659H206.959C206.88 31.1316 206.747 31.3089 206.561 31.4979C206.376 31.6868 206.129 31.8475 205.821 31.9801C205.512 32.1127 205.136 32.179 204.692 32.179ZM204.871 31.125C205.335 31.125 205.726 31.0339 206.044 30.8516C206.366 30.6693 206.608 30.4339 206.77 30.1456C206.936 29.8572 207.019 29.554 207.019 29.2358V28.1619C206.969 28.2216 206.86 28.2763 206.691 28.326C206.525 28.3724 206.333 28.4138 206.114 28.4503C205.899 28.4834 205.688 28.5133 205.483 28.5398C205.28 28.563 205.116 28.5829 204.99 28.5994C204.685 28.6392 204.4 28.7038 204.135 28.7933C203.873 28.8795 203.661 29.0104 203.499 29.1861C203.34 29.3584 203.26 29.5937 203.26 29.892C203.26 30.2997 203.411 30.608 203.713 30.8168C204.018 31.0223 204.404 31.125 204.871 31.125ZM215.743 26.0739L214.689 26.3722C214.622 26.1965 214.525 26.0258 214.395 25.8601C214.269 25.6911 214.097 25.5518 213.878 25.4425C213.66 25.3331 213.38 25.2784 213.038 25.2784C212.571 25.2784 212.181 25.3861 211.87 25.6016C211.562 25.8137 211.407 26.0838 211.407 26.4119C211.407 26.7036 211.514 26.9339 211.726 27.103C211.938 27.272 212.269 27.4129 212.72 27.5256L213.854 27.804C214.536 27.9697 215.045 28.2232 215.38 28.5646C215.715 28.9027 215.882 29.3385 215.882 29.8722C215.882 30.3097 215.756 30.7008 215.504 31.0455C215.256 31.3902 214.907 31.6619 214.46 31.8608C214.013 32.0597 213.492 32.1591 212.899 32.1591C212.12 32.1591 211.475 31.9901 210.965 31.652C210.455 31.3139 210.131 30.8201 209.996 30.1705L211.109 29.892C211.215 30.303 211.416 30.6113 211.711 30.8168C212.009 31.0223 212.398 31.125 212.879 31.125C213.426 31.125 213.86 31.009 214.182 30.777C214.506 30.5417 214.669 30.2599 214.669 29.9318C214.669 29.6667 214.576 29.4446 214.39 29.2656C214.205 29.0833 213.92 28.9474 213.535 28.858L212.263 28.5597C211.563 28.3939 211.05 28.1371 210.721 27.7891C210.397 27.4377 210.234 26.9986 210.234 26.4716C210.234 26.0407 210.355 25.6596 210.597 25.3281C210.842 24.9967 211.175 24.7365 211.596 24.5476C212.021 24.3587 212.501 24.2642 213.038 24.2642C213.794 24.2642 214.387 24.4299 214.818 24.7614C215.252 25.0928 215.56 25.5303 215.743 26.0739Z" fill="black"/>
<line x1="161" y1="40.5" x2="236" y2="40.5" stroke="black"/>
<path d="M260 32.4L254 26.4L255.4 25L260 29.6L264.6 25L266 26.4L260 32.4Z" fill="#1F1F1F"/>
<path d="M16.4 35L15 33.6L20.6 28L15 22.4L16.4 21L22 26.6L27.6 21L29 22.4L23.4 28L29 33.6L27.6 35L22 29.4L16.4 35Z" fill="#005BA9"/>
</svg>
