<svg width="32" height="32" viewBox="0 0 32 32" fill="none" xmlns="http://www.w3.org/2000/svg">
<circle cx="16" cy="16" r="16" fill="#D9D9D9"/>
<path d="M15.9704 22.179C15.2204 22.179 14.545 22.0298 13.9442 21.7315C13.3433 21.4332 12.8618 21.0241 12.4996 20.5043C12.1373 19.9844 11.9392 19.392 11.9051 18.7273H13.4392C13.4988 19.3196 13.7673 19.8097 14.2446 20.1974C14.7261 20.581 15.3014 20.7727 15.9704 20.7727C16.5074 20.7727 16.9846 20.647 17.4023 20.3956C17.8241 20.1442 18.1544 19.799 18.393 19.3601C18.6359 18.9169 18.7574 18.4162 18.7574 17.858C18.7574 17.2869 18.6317 16.7777 18.3802 16.3303C18.1331 15.8786 17.7922 15.5227 17.3575 15.2628C16.9229 15.0028 16.4264 14.8707 15.8682 14.8665C15.4676 14.8622 15.0564 14.924 14.6345 15.0518C14.2126 15.1754 13.8653 15.3352 13.5926 15.5312L12.1096 15.3523L12.9023 8.90909H19.7034V10.3153H14.2318L13.7716 14.1761H13.8483C14.1167 13.9631 14.4534 13.7862 14.8582 13.6456C15.2631 13.505 15.6849 13.4347 16.1238 13.4347C16.925 13.4347 17.6388 13.6264 18.2652 14.0099C18.8959 14.3892 19.3902 14.9091 19.7481 15.5696C20.1104 16.2301 20.2915 16.9844 20.2915 17.8324C20.2915 18.6676 20.104 19.4134 19.729 20.0696C19.3582 20.7216 18.8469 21.2372 18.1949 21.6165C17.5429 21.9915 16.8014 22.179 15.9704 22.179Z" fill="#333333"/>
</svg>
