<svg width="32" height="32" viewBox="0 0 32 32" fill="none" xmlns="http://www.w3.org/2000/svg">
<circle cx="16" cy="16" r="16" fill="#D9D9D9"/>
<path d="M16.0024 22.179C15.1246 22.179 14.349 22.0234 13.6757 21.7124C13.0067 21.397 12.4846 20.9645 12.1096 20.4148C11.7346 19.8608 11.5493 19.2301 11.5535 18.5227C11.5493 17.9687 11.6579 17.4574 11.8795 16.9886C12.1011 16.5156 12.4037 16.1214 12.7872 15.8061C13.175 15.4865 13.6075 15.2841 14.0848 15.1989V15.1222C13.4584 14.9602 12.9598 14.6087 12.589 14.0675C12.2183 13.522 12.0351 12.902 12.0393 12.2074C12.0351 11.5426 12.2034 10.9482 12.5443 10.424C12.8852 9.89986 13.354 9.48651 13.9506 9.18395C14.5514 8.88139 15.2354 8.73011 16.0024 8.73011C16.7609 8.73011 17.4385 8.88139 18.0351 9.18395C18.6317 9.48651 19.1004 9.89986 19.4413 10.424C19.7865 10.9482 19.9612 11.5426 19.9655 12.2074C19.9612 12.902 19.7716 13.522 19.3966 14.0675C19.0258 14.6087 18.5336 14.9602 17.92 15.1222V15.1989C18.393 15.2841 18.8192 15.4865 19.1984 15.8061C19.5777 16.1214 19.8802 16.5156 20.1061 16.9886C20.3319 17.4574 20.447 17.9687 20.4513 18.5227C20.447 19.2301 20.2552 19.8608 19.876 20.4148C19.501 20.9645 18.979 21.397 18.3099 21.7124C17.6452 22.0234 16.876 22.179 16.0024 22.179ZM16.0024 20.7727C16.5947 20.7727 17.1061 20.6768 17.5365 20.4851C17.9669 20.2933 18.2993 20.0227 18.5336 19.6733C18.768 19.3239 18.8873 18.9148 18.8916 18.446C18.8873 17.9517 18.7595 17.5149 18.5081 17.1357C18.2567 16.7564 17.9136 16.4581 17.479 16.2408C17.0486 16.0234 16.5564 15.9148 16.0024 15.9148C15.4442 15.9148 14.9456 16.0234 14.5067 16.2408C14.072 16.4581 13.729 16.7564 13.4775 17.1357C13.2304 17.5149 13.1089 17.9517 13.1132 18.446C13.1089 18.9148 13.2219 19.3239 13.452 19.6733C13.6863 20.0227 14.0209 20.2933 14.4555 20.4851C14.8902 20.6768 15.4058 20.7727 16.0024 20.7727ZM16.0024 14.5597C16.4711 14.5597 16.8866 14.4659 17.2488 14.2784C17.6153 14.0909 17.903 13.8288 18.1118 13.4922C18.3206 13.1555 18.4271 12.7614 18.4314 12.3097C18.4271 11.8665 18.3227 11.4808 18.1182 11.1527C17.9136 10.8203 17.6302 10.5646 17.268 10.3857C16.9058 10.2024 16.4839 10.1108 16.0024 10.1108C15.5123 10.1108 15.0841 10.2024 14.7176 10.3857C14.3511 10.5646 14.0677 10.8203 13.8675 11.1527C13.6672 11.4808 13.5692 11.8665 13.5734 12.3097C13.5692 12.7614 13.6693 13.1555 13.8738 13.4922C14.0827 13.8288 14.3703 14.0909 14.7368 14.2784C15.1032 14.4659 15.5251 14.5597 16.0024 14.5597Z" fill="#333333"/>
</svg>
