<svg width="288" height="56" viewBox="0 0 288 56" fill="none" xmlns="http://www.w3.org/2000/svg">
<rect x="0.5" y="0.5" width="287" height="55" rx="11.5" stroke="#005BA9"/>
<path d="M47.6165 23.1406V21.8182H55.4964V23.1406H52.3196V32H50.7884V23.1406H47.6165ZM59.2276 32.1541C58.5117 32.1541 57.887 31.9901 57.3533 31.6619C56.8197 31.3338 56.4054 30.8748 56.1104 30.2848C55.8155 29.6948 55.668 29.0054 55.668 28.2166C55.668 27.4245 55.8155 26.7318 56.1104 26.1385C56.4054 25.5452 56.8197 25.0845 57.3533 24.7564C57.887 24.4283 58.5117 24.2642 59.2276 24.2642C59.9435 24.2642 60.5683 24.4283 61.1019 24.7564C61.6355 25.0845 62.0498 25.5452 62.3448 26.1385C62.6398 26.7318 62.7873 27.4245 62.7873 28.2166C62.7873 29.0054 62.6398 29.6948 62.3448 30.2848C62.0498 30.8748 61.6355 31.3338 61.1019 31.6619C60.5683 31.9901 59.9435 32.1541 59.2276 32.1541ZM59.2326 30.9062C59.6966 30.9062 60.0811 30.7836 60.386 30.5384C60.6909 30.2931 60.9163 29.9666 61.0621 29.5589C61.2113 29.1513 61.2859 28.7022 61.2859 28.2116C61.2859 27.7244 61.2113 27.277 61.0621 26.8693C60.9163 26.4583 60.6909 26.1286 60.386 25.88C60.0811 25.6314 59.6966 25.5071 59.2326 25.5071C58.7653 25.5071 58.3775 25.6314 58.0692 25.88C57.7643 26.1286 57.5373 26.4583 57.3881 26.8693C57.2423 27.277 57.1694 27.7244 57.1694 28.2116C57.1694 28.7022 57.2423 29.1513 57.3881 29.5589C57.5373 29.9666 57.7643 30.2931 58.0692 30.5384C58.3775 30.7836 58.7653 30.9062 59.2326 30.9062ZM69.2839 28.8331V24.3636H70.7754V32H69.3137V30.6776H69.2342C69.0585 31.0852 68.7768 31.425 68.389 31.6967C68.0046 31.9652 67.5256 32.0994 66.9522 32.0994C66.4617 32.0994 66.0275 31.9917 65.6497 31.7763C65.2752 31.5575 64.9802 31.2344 64.7647 30.8068C64.5526 30.3793 64.4466 29.8506 64.4466 29.2209V24.3636H65.9331V29.0419C65.9331 29.5623 66.0772 29.9766 66.3656 30.2848C66.6539 30.593 67.0285 30.7472 67.4892 30.7472C67.7676 30.7472 68.0443 30.6776 68.3194 30.5384C68.5978 30.3991 68.8282 30.1887 69.0105 29.907C69.1961 29.6252 69.2872 29.2673 69.2839 28.8331ZM72.7727 32V24.3636H74.2095V25.5767H74.2891C74.4283 25.1657 74.6735 24.8426 75.0249 24.6072C75.3795 24.3686 75.7805 24.2493 76.228 24.2493C76.3208 24.2493 76.4302 24.2526 76.5561 24.2592C76.6854 24.2659 76.7865 24.2741 76.8594 24.2841V25.706C76.7997 25.6894 76.6937 25.6712 76.5412 25.6513C76.3887 25.6281 76.2363 25.6165 76.0838 25.6165C75.7325 25.6165 75.4193 25.6911 75.1442 25.8402C74.8724 25.986 74.657 26.1899 74.4979 26.4517C74.3388 26.7102 74.2592 27.0052 74.2592 27.3366V32H72.7727ZM79.6323 27.4659V32H78.1458V24.3636H79.5726V25.6065H79.6671C79.8427 25.2022 80.1178 24.8774 80.4924 24.6321C80.8702 24.3868 81.3458 24.2642 81.9192 24.2642C82.4396 24.2642 82.8953 24.3736 83.2864 24.5923C83.6775 24.8078 83.9808 25.1293 84.1962 25.5568C84.4116 25.9844 84.5194 26.513 84.5194 27.1428V32H83.0328V27.3217C83.0328 26.7682 82.8887 26.3357 82.6003 26.0241C82.312 25.7093 81.9159 25.5518 81.4121 25.5518C81.0674 25.5518 80.7608 25.6264 80.4924 25.7756C80.2272 25.9247 80.0167 26.1435 79.861 26.4318C79.7085 26.7169 79.6323 27.0616 79.6323 27.4659ZM89.8042 32.1541C89.0518 32.1541 88.4038 31.9934 87.8603 31.6719C87.32 31.3471 86.9024 30.8913 86.6074 30.3047C86.3158 29.7147 86.1699 29.0237 86.1699 28.2315C86.1699 27.4493 86.3158 26.7599 86.6074 26.1634C86.9024 25.5668 87.3134 25.1011 87.8404 24.7663C88.3707 24.4316 88.9905 24.2642 89.6998 24.2642C90.1306 24.2642 90.5482 24.3355 90.9526 24.478C91.3569 24.6205 91.7199 24.8442 92.0414 25.1491C92.3629 25.4541 92.6164 25.8501 92.802 26.3374C92.9876 26.8213 93.0804 27.4096 93.0804 28.1023V28.6293H87.0101V27.5156H91.6238C91.6238 27.1245 91.5442 26.7782 91.3851 26.4766C91.226 26.1716 91.0023 25.9313 90.714 25.7557C90.4289 25.58 90.0942 25.4922 89.7097 25.4922C89.2921 25.4922 88.9275 25.5949 88.6159 25.8004C88.3077 26.0026 88.0691 26.2678 87.9 26.5959C87.7343 26.9207 87.6515 27.2737 87.6515 27.6548V28.5249C87.6515 29.0353 87.7409 29.4695 87.9199 29.8274C88.1022 30.1854 88.3558 30.4588 88.6806 30.6477C89.0054 30.8333 89.3849 30.9261 89.8191 30.9261C90.1008 30.9261 90.3577 30.8864 90.5897 30.8068C90.8217 30.724 91.0222 30.6013 91.1912 30.4389C91.3603 30.2765 91.4895 30.076 91.579 29.8374L92.986 30.0909C92.8733 30.5052 92.6711 30.8681 92.3794 31.1797C92.0911 31.4879 91.7282 31.7282 91.2907 31.9006C90.8565 32.0696 90.361 32.1541 89.8042 32.1541ZM94.7298 32V24.3636H96.1665V25.5767H96.2461C96.3853 25.1657 96.6306 24.8426 96.9819 24.6072C97.3365 24.3686 97.7376 24.2493 98.185 24.2493C98.2778 24.2493 98.3872 24.2526 98.5131 24.2592C98.6424 24.2659 98.7435 24.2741 98.8164 24.2841V25.706C98.7567 25.6894 98.6507 25.6712 98.4982 25.6513C98.3458 25.6281 98.1933 25.6165 98.0408 25.6165C97.6895 25.6165 97.3763 25.6911 97.1012 25.8402C96.8294 25.986 96.614 26.1899 96.4549 26.4517C96.2958 26.7102 96.2163 27.0052 96.2163 27.3366V32H94.7298Z" fill="black"/>
<path d="M178.259 35.0227C177.692 35.0227 177.205 34.9498 176.797 34.804C176.389 34.6615 176.05 34.4725 175.778 34.2372C175.509 34.0052 175.296 33.7566 175.137 33.4915L176.071 32.8352C176.177 32.9744 176.312 33.1335 176.474 33.3125C176.636 33.4948 176.858 33.6522 177.14 33.7848C177.425 33.9207 177.798 33.9886 178.259 33.9886C178.875 33.9886 179.384 33.8395 179.785 33.5412C180.186 33.2429 180.387 32.7756 180.387 32.1392V30.5881H180.287C180.201 30.7273 180.078 30.8996 179.919 31.1051C179.764 31.3073 179.538 31.4879 179.243 31.647C178.951 31.8028 178.557 31.8807 178.06 31.8807C177.443 31.8807 176.89 31.7348 176.399 31.4432C175.912 31.1515 175.526 30.7273 175.241 30.1705C174.959 29.6136 174.818 28.9375 174.818 28.142C174.818 27.3598 174.956 26.6787 175.231 26.0987C175.506 25.5154 175.889 25.0646 176.38 24.7464C176.87 24.425 177.437 24.2642 178.08 24.2642C178.577 24.2642 178.971 24.3471 179.263 24.5128C179.558 24.6752 179.783 24.8608 179.939 25.0696C180.098 25.2751 180.221 25.4441 180.307 25.5767H180.426V24.3636H181.56V32.2188C181.56 32.875 181.411 33.4086 181.112 33.8196C180.818 34.2339 180.42 34.5372 179.919 34.7294C179.422 34.925 178.869 35.0227 178.259 35.0227ZM178.219 30.8267C178.69 30.8267 179.087 30.719 179.412 30.5036C179.737 30.2881 179.984 29.9782 180.153 29.5739C180.322 29.1695 180.407 28.6856 180.407 28.1222C180.407 27.572 180.324 27.0864 180.158 26.6655C179.992 26.2446 179.747 25.9148 179.422 25.6761C179.097 25.4375 178.696 25.3182 178.219 25.3182C177.722 25.3182 177.308 25.4441 176.976 25.696C176.648 25.9479 176.401 26.286 176.235 26.7102C176.073 27.1345 175.992 27.6051 175.992 28.1222C175.992 28.6525 176.075 29.1214 176.24 29.5291C176.409 29.9335 176.658 30.2517 176.986 30.4837C177.318 30.7124 177.728 30.8267 178.219 30.8267ZM185.955 32.179C185.471 32.179 185.032 32.0878 184.637 31.9055C184.243 31.7199 183.93 31.4531 183.698 31.1051C183.466 30.7538 183.35 30.3295 183.35 29.8324C183.35 29.3949 183.436 29.0402 183.608 28.7685C183.781 28.4934 184.011 28.2779 184.299 28.1222C184.588 27.9664 184.906 27.8504 185.254 27.7741C185.605 27.6946 185.958 27.6316 186.313 27.5852C186.777 27.5256 187.153 27.4808 187.441 27.451C187.733 27.4179 187.945 27.3632 188.078 27.2869C188.214 27.2107 188.282 27.0781 188.282 26.8892V26.8494C188.282 26.3589 188.147 25.9777 187.879 25.706C187.614 25.4342 187.211 25.2983 186.671 25.2983C186.111 25.2983 185.671 25.4209 185.353 25.6662C185.035 25.9115 184.811 26.1733 184.682 26.4517L183.568 26.054C183.767 25.59 184.032 25.2287 184.364 24.9702C184.699 24.7083 185.063 24.526 185.458 24.4233C185.855 24.3172 186.246 24.2642 186.631 24.2642C186.876 24.2642 187.158 24.294 187.476 24.3537C187.798 24.41 188.108 24.5277 188.406 24.7067C188.707 24.8857 188.958 25.1558 189.157 25.517C189.355 25.8783 189.455 26.3622 189.455 26.9688V32H188.282V30.9659H188.222C188.142 31.1316 188.01 31.3089 187.824 31.4979C187.639 31.6868 187.392 31.8475 187.083 31.9801C186.775 32.1127 186.399 32.179 185.955 32.179ZM186.134 31.125C186.598 31.125 186.989 31.0339 187.307 30.8516C187.629 30.6693 187.871 30.4339 188.033 30.1456C188.199 29.8572 188.282 29.554 188.282 29.2358V28.1619C188.232 28.2216 188.122 28.2763 187.953 28.326C187.788 28.3724 187.595 28.4138 187.377 28.4503C187.161 28.4834 186.951 28.5133 186.745 28.5398C186.543 28.563 186.379 28.5829 186.253 28.5994C185.948 28.6392 185.663 28.7038 185.398 28.7933C185.136 28.8795 184.924 29.0104 184.762 29.1861C184.603 29.3584 184.523 29.5937 184.523 29.892C184.523 30.2997 184.674 30.608 184.975 30.8168C185.28 31.0223 185.666 31.125 186.134 31.125ZM196.409 28.8778V24.3636H197.582V32H196.409V30.7074H196.329C196.15 31.0952 195.872 31.425 195.494 31.6967C195.116 31.9652 194.639 32.0994 194.062 32.0994C193.585 32.0994 193.161 31.995 192.79 31.7862C192.418 31.5741 192.127 31.2559 191.915 30.8317C191.702 30.4041 191.596 29.8655 191.596 29.2159V24.3636H192.77V29.1364C192.77 29.6932 192.925 30.1373 193.237 30.4688C193.552 30.8002 193.953 30.9659 194.44 30.9659C194.732 30.9659 195.028 30.8913 195.33 30.7422C195.635 30.593 195.89 30.3643 196.096 30.0561C196.304 29.7479 196.409 29.3551 196.409 28.8778ZM202.833 32.1591C202.117 32.1591 201.501 31.9901 200.984 31.652C200.467 31.3139 200.069 30.8482 199.791 30.255C199.512 29.6617 199.373 28.9839 199.373 28.2216C199.373 27.446 199.516 26.7616 199.801 26.1683C200.089 25.5717 200.49 25.1061 201.004 24.7713C201.521 24.4332 202.124 24.2642 202.813 24.2642C203.35 24.2642 203.834 24.3636 204.265 24.5625C204.696 24.7614 205.049 25.0398 205.324 25.3977C205.599 25.7557 205.77 26.1733 205.836 26.6506H204.663C204.573 26.3026 204.375 25.9943 204.066 25.7259C203.761 25.4541 203.35 25.3182 202.833 25.3182C202.376 25.3182 201.975 25.4375 201.63 25.6761C201.289 25.9115 201.022 26.2446 200.83 26.6754C200.641 27.103 200.546 27.6051 200.546 28.1818C200.546 28.7718 200.639 29.2855 200.825 29.723C201.014 30.1605 201.279 30.5002 201.62 30.7422C201.965 30.9841 202.369 31.1051 202.833 31.1051C203.138 31.1051 203.415 31.0521 203.664 30.946C203.912 30.84 204.123 30.6875 204.295 30.4886C204.467 30.2898 204.59 30.0511 204.663 29.7727H205.836C205.77 30.2235 205.606 30.6295 205.344 30.9908C205.085 31.3487 204.742 31.6338 204.315 31.8459C203.891 32.0547 203.397 32.1591 202.833 32.1591ZM208.725 27.4062V32H207.551V21.8182H208.725V25.5568H208.824C209.003 25.1624 209.272 24.8492 209.63 24.6172C209.991 24.3819 210.471 24.2642 211.071 24.2642C211.592 24.2642 212.047 24.3686 212.438 24.5774C212.83 24.7829 213.133 25.0994 213.348 25.527C213.567 25.9512 213.676 26.4915 213.676 27.1477V32H212.503V27.2273C212.503 26.6207 212.346 26.1518 212.031 25.8203C211.719 25.4856 211.287 25.3182 210.733 25.3182C210.349 25.3182 210.004 25.3994 209.699 25.5618C209.398 25.7242 209.159 25.9612 208.983 26.2727C208.811 26.5843 208.725 26.9621 208.725 27.4062ZM219.025 32.1591C218.289 32.1591 217.654 31.9967 217.12 31.6719C216.59 31.3438 216.181 30.8864 215.892 30.2997C215.607 29.7098 215.465 29.0237 215.465 28.2415C215.465 27.4593 215.607 26.7699 215.892 26.1733C216.181 25.5734 216.582 25.1061 217.096 24.7713C217.613 24.4332 218.216 24.2642 218.905 24.2642C219.303 24.2642 219.696 24.3305 220.084 24.4631C220.471 24.5956 220.824 24.8111 221.142 25.1094C221.461 25.4044 221.714 25.7955 221.903 26.2827C222.092 26.7699 222.187 27.3698 222.187 28.0824V28.5795H216.3V27.5653H220.993C220.993 27.1345 220.907 26.75 220.735 26.4119C220.566 26.0739 220.324 25.8071 220.009 25.6115C219.697 25.416 219.33 25.3182 218.905 25.3182C218.438 25.3182 218.034 25.4342 217.692 25.6662C217.354 25.8949 217.094 26.1932 216.912 26.5611C216.729 26.929 216.638 27.3234 216.638 27.7443V28.4205C216.638 28.9972 216.738 29.486 216.937 29.8871C217.139 30.2848 217.419 30.5881 217.777 30.7969C218.135 31.0024 218.551 31.1051 219.025 31.1051C219.333 31.1051 219.611 31.062 219.86 30.9759C220.112 30.8864 220.329 30.7538 220.511 30.5781C220.693 30.3991 220.834 30.1771 220.934 29.9119L222.067 30.2301C221.948 30.6146 221.747 30.9527 221.466 31.2443C221.184 31.5327 220.836 31.758 220.422 31.9205C220.007 32.0795 219.542 32.1591 219.025 32.1591Z" fill="black"/>
<line x1="161" y1="40.5" x2="236" y2="40.5" stroke="black"/>
<path d="M260 32.4L254 26.4L255.4 25L260 29.6L264.6 25L266 26.4L260 32.4Z" fill="#1F1F1F"/>
<path d="M16.4 35L15 33.6L20.6 28L15 22.4L16.4 21L22 26.6L27.6 21L29 22.4L23.4 28L29 33.6L27.6 35L22 29.4L16.4 35Z" fill="#005BA9"/>
</svg>
