<svg width="288" height="56" viewBox="0 0 288 56" fill="none" xmlns="http://www.w3.org/2000/svg">
<rect x="0.5" y="0.5" width="287" height="55" rx="11.5" stroke="#005BA9"/>
<path d="M263 31.4L257 25.4L258.4 24L263 28.6L267.6 24L269 25.4L263 31.4Z" fill="#1F1F1F"/>
<line x1="164" y1="41.5" x2="239" y2="41.5" stroke="black"/>
<path d="M181.259 36.0227C180.692 36.0227 180.205 35.9498 179.797 35.804C179.389 35.6615 179.05 35.4725 178.778 35.2372C178.509 35.0052 178.296 34.7566 178.137 34.4915L179.071 33.8352C179.177 33.9744 179.312 34.1335 179.474 34.3125C179.636 34.4948 179.858 34.6522 180.14 34.7848C180.425 34.9207 180.798 34.9886 181.259 34.9886C181.875 34.9886 182.384 34.8395 182.785 34.5412C183.186 34.2429 183.387 33.7756 183.387 33.1392V31.5881H183.287C183.201 31.7273 183.078 31.8996 182.919 32.1051C182.764 32.3073 182.538 32.4879 182.243 32.647C181.951 32.8028 181.557 32.8807 181.06 32.8807C180.443 32.8807 179.89 32.7348 179.399 32.4432C178.912 32.1515 178.526 31.7273 178.241 31.1705C177.959 30.6136 177.818 29.9375 177.818 29.142C177.818 28.3598 177.956 27.6787 178.231 27.0987C178.506 26.5154 178.889 26.0646 179.38 25.7464C179.87 25.425 180.437 25.2642 181.08 25.2642C181.577 25.2642 181.971 25.3471 182.263 25.5128C182.558 25.6752 182.783 25.8608 182.939 26.0696C183.098 26.2751 183.221 26.4441 183.307 26.5767H183.426V25.3636H184.56V33.2188C184.56 33.875 184.411 34.4086 184.112 34.8196C183.818 35.2339 183.42 35.5372 182.919 35.7294C182.422 35.925 181.869 36.0227 181.259 36.0227ZM181.219 31.8267C181.69 31.8267 182.087 31.719 182.412 31.5036C182.737 31.2881 182.984 30.9782 183.153 30.5739C183.322 30.1695 183.407 29.6856 183.407 29.1222C183.407 28.572 183.324 28.0864 183.158 27.6655C182.992 27.2446 182.747 26.9148 182.422 26.6761C182.097 26.4375 181.696 26.3182 181.219 26.3182C180.722 26.3182 180.308 26.4441 179.976 26.696C179.648 26.9479 179.401 27.286 179.235 27.7102C179.073 28.1345 178.992 28.6051 178.992 29.1222C178.992 29.6525 179.075 30.1214 179.24 30.5291C179.409 30.9335 179.658 31.2517 179.986 31.4837C180.318 31.7124 180.728 31.8267 181.219 31.8267ZM188.955 33.179C188.471 33.179 188.032 33.0878 187.637 32.9055C187.243 32.7199 186.93 32.4531 186.698 32.1051C186.466 31.7538 186.35 31.3295 186.35 30.8324C186.35 30.3949 186.436 30.0402 186.608 29.7685C186.781 29.4934 187.011 29.2779 187.299 29.1222C187.588 28.9664 187.906 28.8504 188.254 28.7741C188.605 28.6946 188.958 28.6316 189.313 28.5852C189.777 28.5256 190.153 28.4808 190.441 28.451C190.733 28.4179 190.945 28.3632 191.078 28.2869C191.214 28.2107 191.282 28.0781 191.282 27.8892V27.8494C191.282 27.3589 191.147 26.9777 190.879 26.706C190.614 26.4342 190.211 26.2983 189.671 26.2983C189.111 26.2983 188.671 26.4209 188.353 26.6662C188.035 26.9115 187.811 27.1733 187.682 27.4517L186.568 27.054C186.767 26.59 187.032 26.2287 187.364 25.9702C187.699 25.7083 188.063 25.526 188.458 25.4233C188.855 25.3172 189.246 25.2642 189.631 25.2642C189.876 25.2642 190.158 25.294 190.476 25.3537C190.798 25.41 191.108 25.5277 191.406 25.7067C191.707 25.8857 191.958 26.1558 192.157 26.517C192.355 26.8783 192.455 27.3622 192.455 27.9688V33H191.282V31.9659H191.222C191.142 32.1316 191.01 32.3089 190.824 32.4979C190.639 32.6868 190.392 32.8475 190.083 32.9801C189.775 33.1127 189.399 33.179 188.955 33.179ZM189.134 32.125C189.598 32.125 189.989 32.0339 190.307 31.8516C190.629 31.6693 190.871 31.4339 191.033 31.1456C191.199 30.8572 191.282 30.554 191.282 30.2358V29.1619C191.232 29.2216 191.122 29.2763 190.953 29.326C190.788 29.3724 190.595 29.4138 190.377 29.4503C190.161 29.4834 189.951 29.5133 189.745 29.5398C189.543 29.563 189.379 29.5829 189.253 29.5994C188.948 29.6392 188.663 29.7038 188.398 29.7933C188.136 29.8795 187.924 30.0104 187.762 30.1861C187.603 30.3584 187.523 30.5937 187.523 30.892C187.523 31.2997 187.674 31.608 187.975 31.8168C188.28 32.0223 188.666 32.125 189.134 32.125ZM199.409 29.8778V25.3636H200.582V33H199.409V31.7074H199.329C199.15 32.0952 198.872 32.425 198.494 32.6967C198.116 32.9652 197.639 33.0994 197.062 33.0994C196.585 33.0994 196.161 32.995 195.79 32.7862C195.418 32.5741 195.127 32.2559 194.915 31.8317C194.702 31.4041 194.596 30.8655 194.596 30.2159V25.3636H195.77V30.1364C195.77 30.6932 195.925 31.1373 196.237 31.4688C196.552 31.8002 196.953 31.9659 197.44 31.9659C197.732 31.9659 198.028 31.8913 198.33 31.7422C198.635 31.593 198.89 31.3643 199.096 31.0561C199.304 30.7479 199.409 30.3551 199.409 29.8778ZM205.833 33.1591C205.117 33.1591 204.501 32.9901 203.984 32.652C203.467 32.3139 203.069 31.8482 202.791 31.255C202.512 30.6617 202.373 29.9839 202.373 29.2216C202.373 28.446 202.516 27.7616 202.801 27.1683C203.089 26.5717 203.49 26.1061 204.004 25.7713C204.521 25.4332 205.124 25.2642 205.813 25.2642C206.35 25.2642 206.834 25.3636 207.265 25.5625C207.696 25.7614 208.049 26.0398 208.324 26.3977C208.599 26.7557 208.77 27.1733 208.836 27.6506H207.663C207.573 27.3026 207.375 26.9943 207.066 26.7259C206.761 26.4541 206.35 26.3182 205.833 26.3182C205.376 26.3182 204.975 26.4375 204.63 26.6761C204.289 26.9115 204.022 27.2446 203.83 27.6754C203.641 28.103 203.546 28.6051 203.546 29.1818C203.546 29.7718 203.639 30.2855 203.825 30.723C204.014 31.1605 204.279 31.5002 204.62 31.7422C204.965 31.9841 205.369 32.1051 205.833 32.1051C206.138 32.1051 206.415 32.0521 206.664 31.946C206.912 31.84 207.123 31.6875 207.295 31.4886C207.467 31.2898 207.59 31.0511 207.663 30.7727H208.836C208.77 31.2235 208.606 31.6295 208.344 31.9908C208.085 32.3487 207.742 32.6338 207.315 32.8459C206.891 33.0547 206.397 33.1591 205.833 33.1591ZM211.725 28.4062V33H210.551V22.8182H211.725V26.5568H211.824C212.003 26.1624 212.272 25.8492 212.63 25.6172C212.991 25.3819 213.471 25.2642 214.071 25.2642C214.592 25.2642 215.047 25.3686 215.438 25.5774C215.83 25.7829 216.133 26.0994 216.348 26.527C216.567 26.9512 216.676 27.4915 216.676 28.1477V33H215.503V28.2273C215.503 27.6207 215.346 27.1518 215.031 26.8203C214.719 26.4856 214.287 26.3182 213.733 26.3182C213.349 26.3182 213.004 26.3994 212.699 26.5618C212.398 26.7242 212.159 26.9612 211.983 27.2727C211.811 27.5843 211.725 27.9621 211.725 28.4062ZM222.025 33.1591C221.289 33.1591 220.654 32.9967 220.12 32.6719C219.59 32.3438 219.181 31.8864 218.892 31.2997C218.607 30.7098 218.465 30.0237 218.465 29.2415C218.465 28.4593 218.607 27.7699 218.892 27.1733C219.181 26.5734 219.582 26.1061 220.096 25.7713C220.613 25.4332 221.216 25.2642 221.905 25.2642C222.303 25.2642 222.696 25.3305 223.084 25.4631C223.471 25.5956 223.824 25.8111 224.142 26.1094C224.461 26.4044 224.714 26.7955 224.903 27.2827C225.092 27.7699 225.187 28.3698 225.187 29.0824V29.5795H219.3V28.5653H223.993C223.993 28.1345 223.907 27.75 223.735 27.4119C223.566 27.0739 223.324 26.8071 223.009 26.6115C222.697 26.416 222.33 26.3182 221.905 26.3182C221.438 26.3182 221.034 26.4342 220.692 26.6662C220.354 26.8949 220.094 27.1932 219.912 27.5611C219.729 27.929 219.638 28.3234 219.638 28.7443V29.4205C219.638 29.9972 219.738 30.486 219.937 30.8871C220.139 31.2848 220.419 31.5881 220.777 31.7969C221.135 32.0024 221.551 32.1051 222.025 32.1051C222.333 32.1051 222.611 32.062 222.86 31.9759C223.112 31.8864 223.329 31.7538 223.511 31.5781C223.693 31.3991 223.834 31.1771 223.934 30.9119L225.067 31.2301C224.948 31.6146 224.747 31.9527 224.466 32.2443C224.184 32.5327 223.836 32.758 223.422 32.9205C223.007 33.0795 222.542 33.1591 222.025 33.1591Z" fill="black"/>
<path d="M49.6165 24.1406V22.8182H57.4964V24.1406H54.3196V33H52.7884V24.1406H49.6165ZM61.2276 33.1541C60.5117 33.1541 59.887 32.9901 59.3533 32.6619C58.8197 32.3338 58.4054 31.8748 58.1104 31.2848C57.8155 30.6948 57.668 30.0054 57.668 29.2166C57.668 28.4245 57.8155 27.7318 58.1104 27.1385C58.4054 26.5452 58.8197 26.0845 59.3533 25.7564C59.887 25.4283 60.5117 25.2642 61.2276 25.2642C61.9435 25.2642 62.5683 25.4283 63.1019 25.7564C63.6355 26.0845 64.0498 26.5452 64.3448 27.1385C64.6398 27.7318 64.7873 28.4245 64.7873 29.2166C64.7873 30.0054 64.6398 30.6948 64.3448 31.2848C64.0498 31.8748 63.6355 32.3338 63.1019 32.6619C62.5683 32.9901 61.9435 33.1541 61.2276 33.1541ZM61.2326 31.9062C61.6966 31.9062 62.0811 31.7836 62.386 31.5384C62.6909 31.2931 62.9163 30.9666 63.0621 30.5589C63.2113 30.1513 63.2859 29.7022 63.2859 29.2116C63.2859 28.7244 63.2113 28.277 63.0621 27.8693C62.9163 27.4583 62.6909 27.1286 62.386 26.88C62.0811 26.6314 61.6966 26.5071 61.2326 26.5071C60.7653 26.5071 60.3775 26.6314 60.0692 26.88C59.7643 27.1286 59.5373 27.4583 59.3881 27.8693C59.2423 28.277 59.1694 28.7244 59.1694 29.2116C59.1694 29.7022 59.2423 30.1513 59.3881 30.5589C59.5373 30.9666 59.7643 31.2931 60.0692 31.5384C60.3775 31.7836 60.7653 31.9062 61.2326 31.9062ZM71.2839 29.8331V25.3636H72.7754V33H71.3137V31.6776H71.2342C71.0585 32.0852 70.7768 32.425 70.389 32.6967C70.0046 32.9652 69.5256 33.0994 68.9522 33.0994C68.4617 33.0994 68.0275 32.9917 67.6497 32.7763C67.2752 32.5575 66.9802 32.2344 66.7647 31.8068C66.5526 31.3793 66.4466 30.8506 66.4466 30.2209V25.3636H67.9331V30.0419C67.9331 30.5623 68.0772 30.9766 68.3656 31.2848C68.6539 31.593 69.0285 31.7472 69.4892 31.7472C69.7676 31.7472 70.0443 31.6776 70.3194 31.5384C70.5978 31.3991 70.8282 31.1887 71.0105 30.907C71.1961 30.6252 71.2872 30.2673 71.2839 29.8331ZM74.7727 33V25.3636H76.2095V26.5767H76.2891C76.4283 26.1657 76.6735 25.8426 77.0249 25.6072C77.3795 25.3686 77.7805 25.2493 78.228 25.2493C78.3208 25.2493 78.4302 25.2526 78.5561 25.2592C78.6854 25.2659 78.7865 25.2741 78.8594 25.2841V26.706C78.7997 26.6894 78.6937 26.6712 78.5412 26.6513C78.3887 26.6281 78.2363 26.6165 78.0838 26.6165C77.7325 26.6165 77.4193 26.6911 77.1442 26.8402C76.8724 26.986 76.657 27.1899 76.4979 27.4517C76.3388 27.7102 76.2592 28.0052 76.2592 28.3366V33H74.7727ZM81.6323 28.4659V33H80.1458V25.3636H81.5726V26.6065H81.6671C81.8427 26.2022 82.1178 25.8774 82.4924 25.6321C82.8702 25.3868 83.3458 25.2642 83.9192 25.2642C84.4396 25.2642 84.8953 25.3736 85.2864 25.5923C85.6775 25.8078 85.9808 26.1293 86.1962 26.5568C86.4116 26.9844 86.5194 27.513 86.5194 28.1428V33H85.0328V28.3217C85.0328 27.7682 84.8887 27.3357 84.6003 27.0241C84.312 26.7093 83.9159 26.5518 83.4121 26.5518C83.0674 26.5518 82.7608 26.6264 82.4924 26.7756C82.2272 26.9247 82.0167 27.1435 81.861 27.4318C81.7085 27.7169 81.6323 28.0616 81.6323 28.4659ZM91.8042 33.1541C91.0518 33.1541 90.4038 32.9934 89.8603 32.6719C89.32 32.3471 88.9024 31.8913 88.6074 31.3047C88.3158 30.7147 88.1699 30.0237 88.1699 29.2315C88.1699 28.4493 88.3158 27.7599 88.6074 27.1634C88.9024 26.5668 89.3134 26.1011 89.8404 25.7663C90.3707 25.4316 90.9905 25.2642 91.6998 25.2642C92.1306 25.2642 92.5482 25.3355 92.9526 25.478C93.3569 25.6205 93.7199 25.8442 94.0414 26.1491C94.3629 26.4541 94.6164 26.8501 94.802 27.3374C94.9876 27.8213 95.0804 28.4096 95.0804 29.1023V29.6293H89.0101V28.5156H93.6238C93.6238 28.1245 93.5442 27.7782 93.3851 27.4766C93.226 27.1716 93.0023 26.9313 92.714 26.7557C92.4289 26.58 92.0942 26.4922 91.7097 26.4922C91.2921 26.4922 90.9275 26.5949 90.6159 26.8004C90.3077 27.0026 90.0691 27.2678 89.9 27.5959C89.7343 27.9207 89.6515 28.2737 89.6515 28.6548V29.5249C89.6515 30.0353 89.7409 30.4695 89.9199 30.8274C90.1022 31.1854 90.3558 31.4588 90.6806 31.6477C91.0054 31.8333 91.3849 31.9261 91.8191 31.9261C92.1008 31.9261 92.3577 31.8864 92.5897 31.8068C92.8217 31.724 93.0222 31.6013 93.1912 31.4389C93.3603 31.2765 93.4895 31.076 93.579 30.8374L94.986 31.0909C94.8733 31.5052 94.6711 31.8681 94.3794 32.1797C94.0911 32.4879 93.7282 32.7282 93.2907 32.9006C92.8565 33.0696 92.361 33.1541 91.8042 33.1541ZM96.7298 33V25.3636H98.1665V26.5767H98.2461C98.3853 26.1657 98.6306 25.8426 98.9819 25.6072C99.3365 25.3686 99.7376 25.2493 100.185 25.2493C100.278 25.2493 100.387 25.2526 100.513 25.2592C100.642 25.2659 100.743 25.2741 100.816 25.2841V26.706C100.757 26.6894 100.651 26.6712 100.498 26.6513C100.346 26.6281 100.193 26.6165 100.041 26.6165C99.6895 26.6165 99.3763 26.6911 99.1012 26.8402C98.8294 26.986 98.614 27.1899 98.4549 27.4517C98.2958 27.7102 98.2163 28.0052 98.2163 28.3366V33H96.7298Z" fill="black"/>
<path d="M24 29H18V27H24V21H26V27H32V29H26V35H24V29Z" fill="#005BA9"/>
</svg>
