<svg width="288" height="56" viewBox="0 0 288 56" fill="none" xmlns="http://www.w3.org/2000/svg">
<rect x="0.5" y="0.5" width="287" height="55" rx="11.5" stroke="#005BA9"/>
<path d="M263 31.4L257 25.4L258.4 24L263 28.6L267.6 24L269 25.4L263 31.4Z" fill="#1F1F1F"/>
<line x1="164" y1="41.5" x2="239" y2="41.5" stroke="black"/>
<path d="M186.649 22.8182H187.882V30.0966C187.882 30.7462 187.763 31.2981 187.524 31.7521C187.286 32.2062 186.949 32.5509 186.515 32.7862C186.081 33.0215 185.569 33.1392 184.979 33.1392C184.422 33.1392 183.926 33.0381 183.492 32.8359C183.058 32.6304 182.717 32.3388 182.468 31.9609C182.22 31.5831 182.095 31.134 182.095 30.6136H183.308C183.308 30.902 183.38 31.1539 183.522 31.3693C183.668 31.5814 183.867 31.7472 184.119 31.8665C184.371 31.9858 184.657 32.0455 184.979 32.0455C185.333 32.0455 185.635 31.9709 185.884 31.8217C186.132 31.6726 186.321 31.4538 186.45 31.1655C186.583 30.8738 186.649 30.5175 186.649 30.0966V22.8182ZM192.441 33.179C191.957 33.179 191.518 33.0878 191.124 32.9055C190.729 32.7199 190.416 32.4531 190.184 32.1051C189.952 31.7538 189.836 31.3295 189.836 30.8324C189.836 30.3949 189.922 30.0402 190.095 29.7685C190.267 29.4934 190.497 29.2779 190.786 29.1222C191.074 28.9664 191.392 28.8504 191.74 28.7741C192.091 28.6946 192.444 28.6316 192.799 28.5852C193.263 28.5256 193.639 28.4808 193.928 28.451C194.219 28.4179 194.431 28.3632 194.564 28.2869C194.7 28.2107 194.768 28.0781 194.768 27.8892V27.8494C194.768 27.3589 194.634 26.9777 194.365 26.706C194.1 26.4342 193.697 26.2983 193.157 26.2983C192.597 26.2983 192.158 26.4209 191.84 26.6662C191.521 26.9115 191.298 27.1733 191.168 27.4517L190.055 27.054C190.254 26.59 190.519 26.2287 190.85 25.9702C191.185 25.7083 191.55 25.526 191.944 25.4233C192.342 25.3172 192.733 25.2642 193.117 25.2642C193.363 25.2642 193.644 25.294 193.962 25.3537C194.284 25.41 194.594 25.5277 194.892 25.7067C195.194 25.8857 195.444 26.1558 195.643 26.517C195.842 26.8783 195.941 27.3622 195.941 27.9688V33H194.768V31.9659H194.708C194.629 32.1316 194.496 32.3089 194.31 32.4979C194.125 32.6868 193.878 32.8475 193.57 32.9801C193.261 33.1127 192.885 33.179 192.441 33.179ZM192.62 32.125C193.084 32.125 193.475 32.0339 193.793 31.8516C194.115 31.6693 194.357 31.4339 194.519 31.1456C194.685 30.8572 194.768 30.554 194.768 30.2358V29.1619C194.718 29.2216 194.609 29.2763 194.44 29.326C194.274 29.3724 194.082 29.4138 193.863 29.4503C193.648 29.4834 193.437 29.5133 193.232 29.5398C193.029 29.563 192.865 29.5829 192.739 29.5994C192.435 29.6392 192.149 29.7038 191.884 29.7933C191.622 29.8795 191.41 30.0104 191.248 30.1861C191.089 30.3584 191.009 30.5937 191.009 30.892C191.009 31.2997 191.16 31.608 191.462 31.8168C191.767 32.0223 192.153 32.125 192.62 32.125ZM202.895 29.8778V25.3636H204.068V33H202.895V31.7074H202.816C202.637 32.0952 202.358 32.425 201.98 32.6967C201.603 32.9652 201.125 33.0994 200.549 33.0994C200.071 33.0994 199.647 32.995 199.276 32.7862C198.905 32.5741 198.613 32.2559 198.401 31.8317C198.189 31.4041 198.083 30.8655 198.083 30.2159V25.3636H199.256V30.1364C199.256 30.6932 199.412 31.1373 199.723 31.4688C200.038 31.8002 200.439 31.9659 200.926 31.9659C201.218 31.9659 201.515 31.8913 201.816 31.7422C202.121 31.593 202.376 31.3643 202.582 31.0561C202.791 30.7479 202.895 30.3551 202.895 29.8778ZM207.391 28.4062V33H206.217V25.3636H207.351V26.5568H207.45C207.629 26.169 207.901 25.8575 208.266 25.6222C208.63 25.3835 209.101 25.2642 209.678 25.2642C210.195 25.2642 210.647 25.3703 211.035 25.5824C211.423 25.7912 211.724 26.1094 211.94 26.5369C212.155 26.9612 212.263 27.4981 212.263 28.1477V33H211.09V28.2273C211.09 27.6274 210.934 27.16 210.622 26.8253C210.311 26.4872 209.883 26.3182 209.34 26.3182C208.965 26.3182 208.63 26.3994 208.335 26.5618C208.044 26.7242 207.813 26.9612 207.644 27.2727C207.475 27.5843 207.391 27.9621 207.391 28.4062ZM217.609 33.1591C216.873 33.1591 216.238 32.9967 215.704 32.6719C215.174 32.3438 214.765 31.8864 214.476 31.2997C214.191 30.7098 214.049 30.0237 214.049 29.2415C214.049 28.4593 214.191 27.7699 214.476 27.1733C214.765 26.5734 215.166 26.1061 215.68 25.7713C216.197 25.4332 216.8 25.2642 217.489 25.2642C217.887 25.2642 218.28 25.3305 218.668 25.4631C219.055 25.5956 219.408 25.8111 219.726 26.1094C220.045 26.4044 220.298 26.7955 220.487 27.2827C220.676 27.7699 220.771 28.3698 220.771 29.0824V29.5795H214.884V28.5653H219.577C219.577 28.1345 219.491 27.75 219.319 27.4119C219.15 27.0739 218.908 26.8071 218.593 26.6115C218.281 26.416 217.914 26.3182 217.489 26.3182C217.022 26.3182 216.618 26.4342 216.276 26.6662C215.938 26.8949 215.678 27.1932 215.496 27.5611C215.313 27.929 215.222 28.3234 215.222 28.7443V29.4205C215.222 29.9972 215.322 30.486 215.521 30.8871C215.723 31.2848 216.003 31.5881 216.361 31.7969C216.719 32.0024 217.135 32.1051 217.609 32.1051C217.917 32.1051 218.195 32.062 218.444 31.9759C218.696 31.8864 218.913 31.7538 219.095 31.5781C219.277 31.3991 219.418 31.1771 219.518 30.9119L220.651 31.2301C220.532 31.6146 220.331 31.9527 220.05 32.2443C219.768 32.5327 219.42 32.758 219.006 32.9205C218.591 33.0795 218.126 33.1591 217.609 33.1591Z" fill="black"/>
<path d="M58.5753 26.1293H57.0241C56.9645 25.7978 56.8535 25.5062 56.6911 25.2543C56.5286 25.0024 56.3298 24.7886 56.0945 24.6129C55.8591 24.4373 55.5956 24.3047 55.304 24.2152C55.0156 24.1257 54.709 24.081 54.3842 24.081C53.7976 24.081 53.2723 24.2285 52.8082 24.5234C52.3475 24.8184 51.983 25.2509 51.7145 25.821C51.4493 26.3911 51.3168 27.0871 51.3168 27.9091C51.3168 28.7377 51.4493 29.437 51.7145 30.0071C51.983 30.5772 52.3492 31.008 52.8132 31.2997C53.2772 31.5914 53.7992 31.7372 54.3793 31.7372C54.7008 31.7372 55.0057 31.6941 55.294 31.608C55.5857 31.5185 55.8492 31.3875 56.0845 31.2152C56.3198 31.0429 56.5187 30.8324 56.6811 30.5838C56.8468 30.3319 56.9612 30.0436 57.0241 29.7188L58.5753 29.7237C58.4924 30.2242 58.3317 30.6849 58.093 31.1058C57.8577 31.5234 57.5545 31.8847 57.1832 32.1896C56.8153 32.4912 56.3944 32.7249 55.9205 32.8906C55.4465 33.0563 54.9295 33.1392 54.3693 33.1392C53.4877 33.1392 52.7022 32.9304 52.0128 32.5128C51.3234 32.0919 50.7798 31.4903 50.3821 30.7081C49.9877 29.9259 49.7905 28.9929 49.7905 27.9091C49.7905 26.822 49.9893 25.889 50.3871 25.1101C50.7848 24.3279 51.3284 23.728 52.0178 23.3104C52.7071 22.8894 53.491 22.679 54.3693 22.679C54.9096 22.679 55.4134 22.7569 55.8807 22.9126C56.3513 23.0651 56.7739 23.2905 57.1484 23.5888C57.523 23.8838 57.8329 24.245 58.0781 24.6726C58.3234 25.0968 58.4891 25.5824 58.5753 26.1293ZM63.5108 33.1541C62.7949 33.1541 62.1702 32.9901 61.6365 32.6619C61.1029 32.3338 60.6886 31.8748 60.3936 31.2848C60.0987 30.6948 59.9512 30.0054 59.9512 29.2166C59.9512 28.4245 60.0987 27.7318 60.3936 27.1385C60.6886 26.5452 61.1029 26.0845 61.6365 25.7564C62.1702 25.4283 62.7949 25.2642 63.5108 25.2642C64.2267 25.2642 64.8515 25.4283 65.3851 25.7564C65.9187 26.0845 66.333 26.5452 66.628 27.1385C66.923 27.7318 67.0705 28.4245 67.0705 29.2166C67.0705 30.0054 66.923 30.6948 66.628 31.2848C66.333 31.8748 65.9187 32.3338 65.3851 32.6619C64.8515 32.9901 64.2267 33.1541 63.5108 33.1541ZM63.5158 31.9062C63.9798 31.9062 64.3643 31.7836 64.6692 31.5384C64.9741 31.2931 65.1995 30.9666 65.3453 30.5589C65.4945 30.1513 65.5691 29.7022 65.5691 29.2116C65.5691 28.7244 65.4945 28.277 65.3453 27.8693C65.1995 27.4583 64.9741 27.1286 64.6692 26.88C64.3643 26.6314 63.9798 26.5071 63.5158 26.5071C63.0485 26.5071 62.6607 26.6314 62.3525 26.88C62.0475 27.1286 61.8205 27.4583 61.6713 27.8693C61.5255 28.277 61.4526 28.7244 61.4526 29.2116C61.4526 29.7022 61.5255 30.1513 61.6713 30.5589C61.8205 30.9666 62.0475 31.2931 62.3525 31.5384C62.6607 31.7836 63.0485 31.9062 63.5158 31.9062ZM73.5671 29.8331V25.3636H75.0586V33H73.5969V31.6776H73.5174C73.3417 32.0852 73.06 32.425 72.6722 32.6967C72.2878 32.9652 71.8088 33.0994 71.2354 33.0994C70.7449 33.0994 70.3107 32.9917 69.9329 32.7763C69.5584 32.5575 69.2634 32.2344 69.0479 31.8068C68.8358 31.3793 68.7298 30.8506 68.7298 30.2209V25.3636H70.2163V30.0419C70.2163 30.5623 70.3604 30.9766 70.6488 31.2848C70.9371 31.593 71.3117 31.7472 71.7724 31.7472C72.0508 31.7472 72.3275 31.6776 72.6026 31.5384C72.881 31.3991 73.1114 31.1887 73.2937 30.907C73.4793 30.6252 73.5704 30.2673 73.5671 29.8331ZM78.5424 22.8182V33H77.0559V22.8182H78.5424ZM83.8335 33.1541C83.0811 33.1541 82.4331 32.9934 81.8896 32.6719C81.3493 32.3471 80.9317 31.8913 80.6367 31.3047C80.3451 30.7147 80.1992 30.0237 80.1992 29.2315C80.1992 28.4493 80.3451 27.7599 80.6367 27.1634C80.9317 26.5668 81.3427 26.1011 81.8697 25.7663C82.4 25.4316 83.0198 25.2642 83.729 25.2642C84.1599 25.2642 84.5775 25.3355 84.9819 25.478C85.3862 25.6205 85.7492 25.8442 86.0707 26.1491C86.3922 26.4541 86.6457 26.8501 86.8313 27.3374C87.0169 27.8213 87.1097 28.4096 87.1097 29.1023V29.6293H81.0394V28.5156H85.6531C85.6531 28.1245 85.5735 27.7782 85.4144 27.4766C85.2553 27.1716 85.0316 26.9313 84.7433 26.7557C84.4582 26.58 84.1235 26.4922 83.739 26.4922C83.3214 26.4922 82.9568 26.5949 82.6452 26.8004C82.337 27.0026 82.0984 27.2678 81.9293 27.5959C81.7636 27.9207 81.6808 28.2737 81.6808 28.6548V29.5249C81.6808 30.0353 81.7702 30.4695 81.9492 30.8274C82.1315 31.1854 82.3851 31.4588 82.7099 31.6477C83.0347 31.8333 83.4142 31.9261 83.8484 31.9261C84.1301 31.9261 84.387 31.8864 84.619 31.8068C84.851 31.724 85.0515 31.6013 85.2205 31.4389C85.3896 31.2765 85.5188 31.076 85.6083 30.8374L87.0153 31.0909C86.9026 31.5052 86.7004 31.8681 86.4087 32.1797C86.1204 32.4879 85.7575 32.7282 85.32 32.9006C84.8858 33.0696 84.3903 33.1541 83.8335 33.1541ZM93.5964 29.8331V25.3636H95.0879V33H93.6262V31.6776H93.5467C93.371 32.0852 93.0893 32.425 92.7015 32.6967C92.3171 32.9652 91.8381 33.0994 91.2647 33.0994C90.7742 33.0994 90.34 32.9917 89.9622 32.7763C89.5877 32.5575 89.2927 32.2344 89.0772 31.8068C88.8651 31.3793 88.7591 30.8506 88.7591 30.2209V25.3636H90.2456V30.0419C90.2456 30.5623 90.3897 30.9766 90.6781 31.2848C90.9664 31.593 91.341 31.7472 91.8017 31.7472C92.0801 31.7472 92.3568 31.6776 92.6319 31.5384C92.9103 31.3991 93.1407 31.1887 93.323 30.907C93.5086 30.6252 93.5997 30.2673 93.5964 29.8331ZM97.0852 33V25.3636H98.522V26.5767H98.6016C98.7408 26.1657 98.986 25.8426 99.3374 25.6072C99.692 25.3686 100.093 25.2493 100.54 25.2493C100.633 25.2493 100.743 25.2526 100.869 25.2592C100.998 25.2659 101.099 25.2741 101.172 25.2841V26.706C101.112 26.6894 101.006 26.6712 100.854 26.6513C100.701 26.6281 100.549 26.6165 100.396 26.6165C100.045 26.6165 99.7318 26.6911 99.4567 26.8402C99.1849 26.986 98.9695 27.1899 98.8104 27.4517C98.6513 27.7102 98.5717 28.0052 98.5717 28.3366V33H97.0852Z" fill="black"/>
<path d="M24 29H18V27H24V21H26V27H32V29H26V35H24V29Z" fill="#005BA9"/>
</svg>
