<svg width="288" height="56" viewBox="0 0 288 56" fill="none" xmlns="http://www.w3.org/2000/svg">
<rect x="0.5" y="0.5" width="287" height="55" rx="11.5" stroke="#005BA9"/>
<path d="M48.9787 32H47.348L51.0121 21.8182H52.7869L56.451 32H54.8203L51.9418 23.6676H51.8622L48.9787 32ZM49.2521 28.0128H54.5419V29.3054H49.2521V28.0128ZM63.3777 24.3636L60.6085 32H59.0176L56.2434 24.3636H57.8393L59.7733 30.2401H59.8528L61.7818 24.3636H63.3777ZM66.7782 32.169C66.2943 32.169 65.8568 32.0795 65.4657 31.9006C65.0746 31.7183 64.7647 31.4548 64.536 31.1101C64.3107 30.7654 64.198 30.3428 64.198 29.8423C64.198 29.4115 64.2808 29.0568 64.4466 28.7784C64.6123 28.5 64.836 28.2796 65.1177 28.1172C65.3994 27.9548 65.7143 27.8321 66.0623 27.7493C66.4103 27.6664 66.765 27.6035 67.1262 27.5604C67.5836 27.5073 67.9548 27.4643 68.2399 27.4311C68.5249 27.3946 68.7321 27.3366 68.8613 27.2571C68.9906 27.1776 69.0552 27.0483 69.0552 26.8693V26.8345C69.0552 26.4003 68.9326 26.0639 68.6873 25.8253C68.4454 25.5866 68.0841 25.4673 67.6035 25.4673C67.103 25.4673 66.7086 25.5784 66.4203 25.8004C66.1352 26.0192 65.938 26.2628 65.8287 26.5312L64.4316 26.2131C64.5974 25.7491 64.8393 25.3745 65.1575 25.0895C65.479 24.8011 65.8485 24.5923 66.2662 24.4631C66.6838 24.3305 67.1229 24.2642 67.5836 24.2642C67.8886 24.2642 68.2117 24.3007 68.5531 24.3736C68.8978 24.4432 69.2193 24.5724 69.5176 24.7614C69.8192 24.9503 70.0661 25.2204 70.2583 25.5717C70.4506 25.9197 70.5467 26.3722 70.5467 26.929V32H69.095V30.956H69.0353C68.9392 31.1482 68.795 31.3371 68.6028 31.5227C68.4106 31.7083 68.1636 31.8625 67.862 31.9851C67.5604 32.1077 67.1992 32.169 66.7782 32.169ZM67.1014 30.9759C67.5124 30.9759 67.8637 30.8946 68.1554 30.7322C68.4503 30.5698 68.6741 30.3577 68.8265 30.0959C68.9823 29.8307 69.0602 29.5473 69.0602 29.2457V28.2614C69.0072 28.3144 68.9044 28.3641 68.752 28.4105C68.6028 28.4536 68.4321 28.4917 68.2399 28.5249C68.0476 28.5547 67.8604 28.5829 67.6781 28.6094C67.4958 28.6326 67.3433 28.6525 67.2207 28.669C66.9324 28.7055 66.6689 28.7668 66.4302 28.853C66.1949 28.9392 66.006 29.0634 65.8635 29.2259C65.7243 29.3849 65.6547 29.5971 65.6547 29.8622C65.6547 30.2301 65.7905 30.5085 66.0623 30.6974C66.3341 30.883 66.6805 30.9759 67.1014 30.9759ZM74.0131 27.4659V32H72.5266V24.3636H73.9535V25.6065H74.0479C74.2236 25.2022 74.4987 24.8774 74.8732 24.6321C75.2511 24.3868 75.7267 24.2642 76.3001 24.2642C76.8204 24.2642 77.2762 24.3736 77.6673 24.5923C78.0584 24.8078 78.3616 25.1293 78.5771 25.5568C78.7925 25.9844 78.9002 26.513 78.9002 27.1428V32H77.4137V27.3217C77.4137 26.7682 77.2695 26.3357 76.9812 26.0241C76.6928 25.7093 76.2968 25.5518 75.793 25.5518C75.4483 25.5518 75.1417 25.6264 74.8732 25.7756C74.6081 25.9247 74.3976 26.1435 74.2418 26.4318C74.0894 26.7169 74.0131 27.0616 74.0131 27.4659ZM84.1104 32.1541C83.3713 32.1541 82.735 31.9867 82.2013 31.652C81.671 31.3139 81.2634 30.8482 80.9783 30.255C80.6933 29.6617 80.5508 28.9822 80.5508 28.2166C80.5508 27.4411 80.6966 26.7566 80.9883 26.1634C81.2799 25.5668 81.6909 25.1011 82.2212 24.7663C82.7515 24.4316 83.3763 24.2642 84.0955 24.2642C84.6755 24.2642 85.1926 24.3719 85.6467 24.5874C86.1007 24.7995 86.467 25.0978 86.7454 25.4822C87.0271 25.8667 87.1945 26.3158 87.2475 26.8295H85.8008C85.7212 26.4716 85.5389 26.1634 85.2539 25.9048C84.9722 25.6463 84.5943 25.517 84.1204 25.517C83.7061 25.517 83.3432 25.6264 83.0316 25.8452C82.7234 26.0606 82.4831 26.3688 82.3107 26.7699C82.1384 27.1676 82.0522 27.6383 82.0522 28.1818C82.0522 28.7386 82.1367 29.2192 82.3058 29.6236C82.4748 30.0279 82.7134 30.3411 83.0217 30.5632C83.3332 30.7853 83.6995 30.8963 84.1204 30.8963C84.4021 30.8963 84.6573 30.8449 84.886 30.7422C85.118 30.6361 85.3119 30.4853 85.4677 30.2898C85.6268 30.0942 85.7378 29.8589 85.8008 29.5838H87.2475C87.1945 30.0777 87.0337 30.5185 86.7653 30.9062C86.4968 31.294 86.1372 31.599 85.6864 31.821C85.239 32.0431 84.7137 32.1541 84.1104 32.1541ZM92.1284 32.1541C91.376 32.1541 90.728 31.9934 90.1845 31.6719C89.6442 31.3471 89.2266 30.8913 88.9316 30.3047C88.64 29.7147 88.4941 29.0237 88.4941 28.2315C88.4941 27.4493 88.64 26.7599 88.9316 26.1634C89.2266 25.5668 89.6376 25.1011 90.1646 24.7663C90.6949 24.4316 91.3147 24.2642 92.024 24.2642C92.4548 24.2642 92.8725 24.3355 93.2768 24.478C93.6812 24.6205 94.0441 24.8442 94.3656 25.1491C94.6871 25.4541 94.9406 25.8501 95.1262 26.3374C95.3118 26.8213 95.4047 27.4096 95.4047 28.1023V28.6293H89.3343V27.5156H93.948C93.948 27.1245 93.8684 26.7782 93.7093 26.4766C93.5502 26.1716 93.3265 25.9313 93.0382 25.7557C92.7531 25.58 92.4184 25.4922 92.0339 25.4922C91.6163 25.4922 91.2517 25.5949 90.9402 25.8004C90.6319 26.0026 90.3933 26.2678 90.2243 26.5959C90.0585 26.9207 89.9757 27.2737 89.9757 27.6548V28.5249C89.9757 29.0353 90.0652 29.4695 90.2441 29.8274C90.4264 30.1854 90.68 30.4588 91.0048 30.6477C91.3296 30.8333 91.7091 30.9261 92.1433 30.9261C92.425 30.9261 92.6819 30.8864 92.9139 30.8068C93.1459 30.724 93.3464 30.6013 93.5154 30.4389C93.6845 30.2765 93.8137 30.076 93.9032 29.8374L95.3102 30.0909C95.1975 30.5052 94.9953 30.8681 94.7037 31.1797C94.4153 31.4879 94.0524 31.7282 93.6149 31.9006C93.1807 32.0696 92.6852 32.1541 92.1284 32.1541ZM97.054 32V24.3636H98.4908V25.5767H98.5703C98.7095 25.1657 98.9548 24.8426 99.3061 24.6072C99.6607 24.3686 100.062 24.2493 100.509 24.2493C100.602 24.2493 100.711 24.2526 100.837 24.2592C100.967 24.2659 101.068 24.2741 101.141 24.2841V25.706C101.081 25.6894 100.975 25.6712 100.822 25.6513C100.67 25.6281 100.518 25.6165 100.365 25.6165C100.014 25.6165 99.7005 25.6911 99.4254 25.8402C99.1536 25.986 98.9382 26.1899 98.7791 26.4517C98.62 26.7102 98.5405 27.0052 98.5405 27.3366V32H97.054Z" fill="black"/>
<path d="M186.044 21.8182V32H184.811V23.1108H184.751L182.265 24.7614V23.5085L184.811 21.8182H186.044ZM192.929 34.8636V24.3636H194.063V25.5767H194.202C194.288 25.4441 194.408 25.2751 194.56 25.0696C194.716 24.8608 194.938 24.6752 195.226 24.5128C195.518 24.3471 195.912 24.2642 196.409 24.2642C197.052 24.2642 197.619 24.425 198.11 24.7464C198.6 25.0679 198.983 25.5237 199.258 26.1136C199.533 26.7036 199.671 27.3996 199.671 28.2017C199.671 29.0104 199.533 29.7114 199.258 30.3047C198.983 30.8946 198.602 31.352 198.115 31.6768C197.627 31.9983 197.066 32.1591 196.429 32.1591C195.939 32.1591 195.546 32.0779 195.251 31.9155C194.956 31.7498 194.729 31.5625 194.57 31.3537C194.411 31.1416 194.288 30.9659 194.202 30.8267H194.103V34.8636H192.929ZM194.083 28.1818C194.083 28.7585 194.167 29.2673 194.336 29.7081C194.505 30.1456 194.752 30.4886 195.077 30.7372C195.402 30.9825 195.8 31.1051 196.27 31.1051C196.761 31.1051 197.17 30.9759 197.498 30.7173C197.83 30.4555 198.078 30.1042 198.244 29.6634C198.413 29.2192 198.498 28.7254 198.498 28.1818C198.498 27.6449 198.415 27.161 198.249 26.7301C198.087 26.2959 197.84 25.9529 197.508 25.701C197.18 25.4458 196.767 25.3182 196.27 25.3182C195.793 25.3182 195.392 25.4392 195.067 25.6811C194.742 25.9197 194.497 26.2545 194.331 26.6854C194.166 27.1129 194.083 27.6117 194.083 28.1818ZM203.708 32.179C203.224 32.179 202.785 32.0878 202.39 31.9055C201.996 31.7199 201.683 31.4531 201.451 31.1051C201.219 30.7538 201.103 30.3295 201.103 29.8324C201.103 29.3949 201.189 29.0402 201.361 28.7685C201.533 28.4934 201.764 28.2779 202.052 28.1222C202.341 27.9664 202.659 27.8504 203.007 27.7741C203.358 27.6946 203.711 27.6316 204.066 27.5852C204.53 27.5256 204.906 27.4808 205.194 27.451C205.486 27.4179 205.698 27.3632 205.831 27.2869C205.967 27.2107 206.034 27.0781 206.034 26.8892V26.8494C206.034 26.3589 205.9 25.9777 205.632 25.706C205.367 25.4342 204.964 25.2983 204.424 25.2983C203.864 25.2983 203.424 25.4209 203.106 25.6662C202.788 25.9115 202.564 26.1733 202.435 26.4517L201.321 26.054C201.52 25.59 201.785 25.2287 202.117 24.9702C202.452 24.7083 202.816 24.526 203.211 24.4233C203.608 24.3172 203.999 24.2642 204.384 24.2642C204.629 24.2642 204.911 24.294 205.229 24.3537C205.551 24.41 205.86 24.5277 206.159 24.7067C206.46 24.8857 206.711 25.1558 206.909 25.517C207.108 25.8783 207.208 26.3622 207.208 26.9688V32H206.034V30.9659H205.975C205.895 31.1316 205.763 31.3089 205.577 31.4979C205.391 31.6868 205.145 31.8475 204.836 31.9801C204.528 32.1127 204.152 32.179 203.708 32.179ZM203.887 31.125C204.351 31.125 204.742 31.0339 205.06 30.8516C205.382 30.6693 205.623 30.4339 205.786 30.1456C205.952 29.8572 206.034 29.554 206.034 29.2358V28.1619C205.985 28.2216 205.875 28.2763 205.706 28.326C205.541 28.3724 205.348 28.4138 205.13 28.4503C204.914 28.4834 204.704 28.5133 204.498 28.5398C204.296 28.563 204.132 28.5829 204.006 28.5994C203.701 28.6392 203.416 28.7038 203.151 28.7933C202.889 28.8795 202.677 29.0104 202.515 29.1861C202.355 29.3584 202.276 29.5937 202.276 29.892C202.276 30.2997 202.427 30.608 202.728 30.8168C203.033 31.0223 203.419 31.125 203.887 31.125ZM214.758 26.0739L213.704 26.3722C213.638 26.1965 213.54 26.0258 213.411 25.8601C213.285 25.6911 213.113 25.5518 212.894 25.4425C212.675 25.3331 212.395 25.2784 212.054 25.2784C211.586 25.2784 211.197 25.3861 210.885 25.6016C210.577 25.8137 210.423 26.0838 210.423 26.4119C210.423 26.7036 210.529 26.9339 210.741 27.103C210.953 27.272 211.285 27.4129 211.736 27.5256L212.869 27.804C213.552 27.9697 214.061 28.2232 214.395 28.5646C214.73 28.9027 214.898 29.3385 214.898 29.8722C214.898 30.3097 214.772 30.7008 214.52 31.0455C214.271 31.3902 213.923 31.6619 213.476 31.8608C213.028 32.0597 212.508 32.1591 211.915 32.1591C211.136 32.1591 210.491 31.9901 209.981 31.652C209.47 31.3139 209.147 30.8201 209.011 30.1705L210.125 29.892C210.231 30.303 210.431 30.6113 210.726 30.8168C211.025 31.0223 211.414 31.125 211.895 31.125C212.442 31.125 212.876 31.009 213.197 30.777C213.522 30.5417 213.684 30.2599 213.684 29.9318C213.684 29.6667 213.592 29.4446 213.406 29.2656C213.22 29.0833 212.935 28.9474 212.551 28.858L211.278 28.5597C210.579 28.3939 210.065 28.1371 209.737 27.7891C209.412 27.4377 209.25 26.9986 209.25 26.4716C209.25 26.0407 209.371 25.6596 209.613 25.3281C209.858 24.9967 210.191 24.7365 210.612 24.5476C211.036 24.3587 211.517 24.2642 212.054 24.2642C212.809 24.2642 213.403 24.4299 213.834 24.7614C214.268 25.0928 214.576 25.5303 214.758 26.0739Z" fill="black"/>
<line x1="161" y1="40.5" x2="236" y2="40.5" stroke="black"/>
<path d="M260 32.4L254 26.4L255.4 25L260 29.6L264.6 25L266 26.4L260 32.4Z" fill="#1F1F1F"/>
<path d="M16.4 35L15 33.6L20.6 28L15 22.4L16.4 21L22 26.6L27.6 21L29 22.4L23.4 28L29 33.6L27.6 35L22 29.4L16.4 35Z" fill="#005BA9"/>
</svg>
