<svg width="960" height="925" viewBox="0 0 960 925" fill="none" xmlns="http://www.w3.org/2000/svg">
<rect x="0.5" y="0.5" width="119" height="119" fill="#333333" stroke="#CDCDCD"/>
<rect x="0.5" y="120.5" width="119" height="119" fill="#333333" stroke="#CDCDCD"/>
<rect x="0.5" y="240.5" width="119" height="119" fill="#333333" stroke="#CDCDCD"/>
<rect x="0.5" y="360.5" width="119" height="119" fill="#333333" stroke="#CDCDCD"/>
<rect x="0.5" y="480.5" width="119" height="119" fill="#333333" stroke="#CDCDCD"/>
<rect x="0.5" y="600.5" width="119" height="119" fill="#333333" stroke="#CDCDCD"/>
<rect x="0.5" y="720.5" width="119" height="119" fill="#333333" stroke="#CDCDCD"/>
<rect x="0.5" y="840.5" width="119" height="119" fill="#333333" stroke="#CDCDCD"/>
<rect x="480.5" y="0.5" width="119" height="119" fill="#333333" stroke="#CDCDCD"/>
<rect x="480.5" y="120.5" width="119" height="119" fill="#333333" stroke="#CDCDCD"/>
<rect x="480.5" y="240.5" width="119" height="119" fill="#333333" stroke="#CDCDCD"/>
<rect x="480.5" y="360.5" width="119" height="119" fill="#333333" stroke="#CDCDCD"/>
<rect x="480.5" y="480.5" width="119" height="119" fill="#333333" stroke="#CDCDCD"/>
<rect x="480.5" y="600.5" width="119" height="119" fill="#333333" stroke="#CDCDCD"/>
<rect x="480.5" y="720.5" width="119" height="119" fill="#333333" stroke="#CDCDCD"/>
<rect x="480.5" y="840.5" width="119" height="119" fill="#333333" stroke="#CDCDCD"/>
<rect x="240.5" y="0.5" width="119" height="119" fill="#333333" stroke="#CDCDCD"/>
<rect x="240.5" y="120.5" width="119" height="119" fill="#333333" stroke="#CDCDCD"/>
<rect x="240.5" y="240.5" width="119" height="119" fill="#333333" stroke="#CDCDCD"/>
<rect x="240.5" y="360.5" width="119" height="119" fill="#333333" stroke="#CDCDCD"/>
<rect x="240.5" y="480.5" width="119" height="119" fill="#333333" stroke="#CDCDCD"/>
<rect x="240.5" y="600.5" width="119" height="119" fill="#333333" stroke="#CDCDCD"/>
<rect x="240.5" y="720.5" width="119" height="119" fill="#333333" stroke="#CDCDCD"/>
<rect x="240.5" y="840.5" width="119" height="119" fill="#333333" stroke="#CDCDCD"/>
<rect x="720.5" y="0.5" width="119" height="119" fill="#333333" stroke="#CDCDCD"/>
<rect x="720.5" y="120.5" width="119" height="119" fill="#333333" stroke="#CDCDCD"/>
<rect x="720.5" y="240.5" width="119" height="119" fill="#333333" stroke="#CDCDCD"/>
<rect x="720.5" y="360.5" width="119" height="119" fill="#333333" stroke="#CDCDCD"/>
<rect x="720.5" y="480.5" width="119" height="119" fill="#333333" stroke="#CDCDCD"/>
<rect x="720.5" y="600.5" width="119" height="119" fill="#333333" stroke="#CDCDCD"/>
<rect x="720.5" y="720.5" width="119" height="119" fill="#333333" stroke="#CDCDCD"/>
<rect x="720.5" y="840.5" width="119" height="119" fill="#333333" stroke="#CDCDCD"/>
<rect x="120.5" y="0.5" width="119" height="119" fill="#333333" stroke="#CDCDCD"/>
<rect x="120.5" y="120.5" width="119" height="119" fill="#333333" stroke="#CDCDCD"/>
<rect x="120.5" y="240.5" width="119" height="119" fill="#333333" stroke="#CDCDCD"/>
<rect x="120.5" y="360.5" width="119" height="119" fill="#333333" stroke="#CDCDCD"/>
<rect x="120.5" y="480.5" width="119" height="119" fill="#333333" stroke="#CDCDCD"/>
<rect x="120.5" y="720.5" width="119" height="119" fill="#333333" stroke="#CDCDCD"/>
<rect x="120.5" y="840.5" width="119" height="119" fill="#333333" stroke="#CDCDCD"/>
<rect x="600.5" y="0.5" width="119" height="119" fill="#333333" stroke="#CDCDCD"/>
<rect x="600.5" y="120.5" width="119" height="119" fill="#333333" stroke="#CDCDCD"/>
<rect x="600.5" y="240.5" width="119" height="119" fill="#333333" stroke="#CDCDCD"/>
<rect x="600.5" y="360.5" width="119" height="119" fill="#333333" stroke="#CDCDCD"/>
<rect x="600.5" y="480.5" width="119" height="119" fill="#333333" stroke="#CDCDCD"/>
<rect x="600.5" y="600.5" width="119" height="119" fill="#333333" stroke="#CDCDCD"/>
<rect x="600.5" y="720.5" width="119" height="119" fill="#333333" stroke="#CDCDCD"/>
<rect x="600.5" y="840.5" width="119" height="119" fill="#333333" stroke="#CDCDCD"/>
<rect x="360.5" y="0.5" width="119" height="119" fill="#333333" stroke="#CDCDCD"/>
<rect x="360.5" y="120.5" width="119" height="119" fill="#333333" stroke="#CDCDCD"/>
<rect x="360.5" y="240.5" width="119" height="119" fill="#333333" stroke="#CDCDCD"/>
<rect x="360.5" y="360.5" width="119" height="119" fill="#333333" stroke="#CDCDCD"/>
<rect x="360.5" y="480.5" width="119" height="119" fill="#333333" stroke="#CDCDCD"/>
<rect x="360.5" y="600.5" width="119" height="119" fill="#333333" stroke="#CDCDCD"/>
<rect x="360.5" y="720.5" width="119" height="119" fill="#333333" stroke="#CDCDCD"/>
<rect x="360.5" y="840.5" width="119" height="119" fill="#333333" stroke="#CDCDCD"/>
<rect x="840.5" y="0.5" width="119" height="119" fill="#333333" stroke="#CDCDCD"/>
<rect x="840.5" y="120.5" width="119" height="119" fill="#333333" stroke="#CDCDCD"/>
<rect x="840.5" y="240.5" width="119" height="119" fill="#333333" stroke="#CDCDCD"/>
<rect x="840.5" y="360.5" width="119" height="119" fill="#333333" stroke="#CDCDCD"/>
<rect x="840.5" y="480.5" width="119" height="119" fill="#333333" stroke="#CDCDCD"/>
<rect x="840.5" y="600.5" width="119" height="119" fill="#333333" stroke="#CDCDCD"/>
<rect x="840.5" y="720.5" width="119" height="119" fill="#333333" stroke="#CDCDCD"/>
<rect x="840.5" y="840.5" width="119" height="119" fill="#333333" stroke="#CDCDCD"/>
<path d="M239.5 600.5V719.5H120.5V600.5H239.5Z" fill="#333333" stroke="#CDCDCD"/>
</svg>
