<svg width="288" height="56" viewBox="0 0 288 56" fill="none" xmlns="http://www.w3.org/2000/svg">
<rect x="0.5" y="0.5" width="287" height="55" rx="11.5" stroke="#CDCDCD"/>
<path d="M51.8182 22.3636V34H50.4091V22.3636H51.8182ZM55.8026 28.75V34H54.4616V25.2727H55.7571V26.6364H55.8707C56.0753 26.1932 56.3859 25.8371 56.8026 25.5682C57.2192 25.2955 57.7571 25.1591 58.4162 25.1591C59.0071 25.1591 59.5241 25.2803 59.9673 25.5227C60.4105 25.7614 60.7552 26.125 61.0014 26.6136C61.2476 27.0985 61.3707 27.7121 61.3707 28.4545V34H60.0298V28.5455C60.0298 27.8598 59.8518 27.3258 59.4957 26.9432C59.1397 26.5568 58.651 26.3636 58.0298 26.3636C57.6018 26.3636 57.2192 26.4564 56.8821 26.642C56.5488 26.8277 56.2855 27.0985 56.0923 27.4545C55.8991 27.8106 55.8026 28.2424 55.8026 28.75ZM70.0028 27.2273L68.7983 27.5682C68.7225 27.3674 68.6108 27.1723 68.4631 26.983C68.3191 26.7898 68.1222 26.6307 67.8722 26.5057C67.6222 26.3807 67.3021 26.3182 66.9119 26.3182C66.3778 26.3182 65.9328 26.4413 65.5767 26.6875C65.2244 26.9299 65.0483 27.2386 65.0483 27.6136C65.0483 27.947 65.1695 28.2102 65.4119 28.4034C65.6544 28.5966 66.0331 28.7576 66.5483 28.8864L67.8438 29.2045C68.6241 29.3939 69.2055 29.6837 69.5881 30.0739C69.9706 30.4602 70.1619 30.9583 70.1619 31.5682C70.1619 32.0682 70.018 32.5152 69.7301 32.9091C69.446 33.303 69.0483 33.6136 68.5369 33.8409C68.0256 34.0682 67.4309 34.1818 66.7528 34.1818C65.8627 34.1818 65.1259 33.9886 64.5426 33.6023C63.9593 33.2159 63.59 32.6515 63.4347 31.9091L64.7074 31.5909C64.8286 32.0606 65.0578 32.4129 65.3949 32.6477C65.7358 32.8826 66.1809 33 66.7301 33C67.3551 33 67.8513 32.8674 68.2188 32.6023C68.59 32.3333 68.7756 32.0114 68.7756 31.6364C68.7756 31.3333 68.6695 31.0795 68.4574 30.875C68.2453 30.6667 67.9195 30.5114 67.4801 30.4091L66.0256 30.0682C65.2263 29.8788 64.6392 29.5852 64.2642 29.1875C63.893 28.786 63.7074 28.2841 63.7074 27.6818C63.7074 27.1894 63.8456 26.7538 64.1222 26.375C64.4025 25.9962 64.7831 25.6989 65.2642 25.483C65.7491 25.267 66.2983 25.1591 66.9119 25.1591C67.7756 25.1591 68.4536 25.3485 68.946 25.7273C69.4422 26.1061 69.7945 26.6061 70.0028 27.2273ZM75.9759 25.2727V26.4091H71.4531V25.2727H75.9759ZM72.7713 23.1818H74.1122V31.5C74.1122 31.8788 74.1671 32.1629 74.277 32.3523C74.3906 32.5379 74.5346 32.6629 74.7088 32.7273C74.8868 32.7879 75.0743 32.8182 75.2713 32.8182C75.419 32.8182 75.5402 32.8106 75.6349 32.7955C75.7296 32.7765 75.8054 32.7614 75.8622 32.75L76.1349 33.9545C76.044 33.9886 75.9171 34.0227 75.7543 34.0568C75.5914 34.0947 75.3849 34.1136 75.1349 34.1136C74.7562 34.1136 74.3849 34.0322 74.0213 33.8693C73.6615 33.7064 73.3622 33.4583 73.1236 33.125C72.8887 32.7917 72.7713 32.3712 72.7713 31.8636V23.1818ZM77.9929 34V25.2727H79.2884V26.5909H79.3793C79.5384 26.1591 79.8262 25.8087 80.2429 25.5398C80.6596 25.2708 81.1293 25.1364 81.652 25.1364C81.7505 25.1364 81.8736 25.1383 82.0213 25.142C82.169 25.1458 82.2808 25.1515 82.3565 25.1591V26.5227C82.3111 26.5114 82.2069 26.4943 82.044 26.4716C81.8849 26.4451 81.7164 26.4318 81.5384 26.4318C81.1141 26.4318 80.7353 26.5208 80.402 26.6989C80.0724 26.8731 79.8111 27.1155 79.6179 27.4261C79.4285 27.733 79.3338 28.0833 79.3338 28.4773V34H77.9929ZM89.446 30.4318V25.2727H90.7869V34H89.446V32.5227H89.3551C89.1506 32.9659 88.8324 33.3428 88.4006 33.6534C87.9688 33.9602 87.4233 34.1136 86.7642 34.1136C86.2188 34.1136 85.7339 33.9943 85.3097 33.7557C84.8854 33.5133 84.5521 33.1496 84.3097 32.6648C84.0672 32.1761 83.946 31.5606 83.946 30.8182V25.2727H85.2869V30.7273C85.2869 31.3636 85.465 31.8712 85.821 32.25C86.1809 32.6288 86.6392 32.8182 87.196 32.8182C87.5294 32.8182 87.8684 32.733 88.2131 32.5625C88.5616 32.392 88.8532 32.1307 89.0881 31.7784C89.3267 31.4261 89.446 30.9773 89.446 30.4318ZM96.7884 34.1818C95.9702 34.1818 95.2656 33.9886 94.6747 33.6023C94.0838 33.2159 93.6293 32.6837 93.3111 32.0057C92.9929 31.3277 92.8338 30.553 92.8338 29.6818C92.8338 28.7955 92.9967 28.0133 93.3224 27.3352C93.652 26.6534 94.1103 26.1212 94.6974 25.7386C95.2884 25.3523 95.9777 25.1591 96.7656 25.1591C97.3793 25.1591 97.9323 25.2727 98.4247 25.5C98.9171 25.7273 99.3205 26.0455 99.6349 26.4545C99.9493 26.8636 100.144 27.3409 100.22 27.8864H98.8793C98.777 27.4886 98.5497 27.1364 98.1974 26.8295C97.849 26.5189 97.3793 26.3636 96.7884 26.3636C96.2656 26.3636 95.8073 26.5 95.4134 26.7727C95.0232 27.0417 94.7183 27.4223 94.4986 27.9148C94.2827 28.4034 94.1747 28.9773 94.1747 29.6364C94.1747 30.3106 94.2808 30.8977 94.4929 31.3977C94.7088 31.8977 95.0118 32.286 95.402 32.5625C95.7959 32.839 96.258 32.9773 96.7884 32.9773C97.1368 32.9773 97.4531 32.9167 97.7372 32.7955C98.0213 32.6742 98.2618 32.5 98.4588 32.2727C98.6558 32.0455 98.7959 31.7727 98.8793 31.4545H100.22C100.144 31.9697 99.9569 32.4337 99.6577 32.8466C99.3622 33.2557 98.9702 33.5814 98.4815 33.8239C97.9967 34.0625 97.4323 34.1818 96.7884 34.1818ZM105.976 25.2727V26.4091H101.453V25.2727H105.976ZM102.771 23.1818H104.112V31.5C104.112 31.8788 104.167 32.1629 104.277 32.3523C104.391 32.5379 104.535 32.6629 104.709 32.7273C104.887 32.7879 105.074 32.8182 105.271 32.8182C105.419 32.8182 105.54 32.8106 105.635 32.7955C105.73 32.7765 105.805 32.7614 105.862 32.75L106.135 33.9545C106.044 33.9886 105.917 34.0227 105.754 34.0568C105.591 34.0947 105.385 34.1136 105.135 34.1136C104.756 34.1136 104.385 34.0322 104.021 33.8693C103.661 33.7064 103.362 33.4583 103.124 33.125C102.889 32.7917 102.771 32.3712 102.771 31.8636V23.1818ZM107.993 34V25.2727H109.334V34H107.993ZM108.675 23.8182C108.413 23.8182 108.188 23.7292 107.999 23.5511C107.813 23.3731 107.72 23.1591 107.72 22.9091C107.72 22.6591 107.813 22.4451 107.999 22.267C108.188 22.089 108.413 22 108.675 22C108.936 22 109.16 22.089 109.345 22.267C109.535 22.4451 109.629 22.6591 109.629 22.9091C109.629 23.1591 109.535 23.3731 109.345 23.5511C109.16 23.7292 108.936 23.8182 108.675 23.8182ZM115.335 34.1818C114.547 34.1818 113.856 33.9943 113.261 33.6193C112.67 33.2443 112.208 32.7197 111.875 32.0455C111.545 31.3712 111.381 30.5833 111.381 29.6818C111.381 28.7727 111.545 27.9792 111.875 27.3011C112.208 26.6231 112.67 26.0966 113.261 25.7216C113.856 25.3466 114.547 25.1591 115.335 25.1591C116.123 25.1591 116.813 25.3466 117.403 25.7216C117.998 26.0966 118.46 26.6231 118.79 27.3011C119.123 27.9792 119.29 28.7727 119.29 29.6818C119.29 30.5833 119.123 31.3712 118.79 32.0455C118.46 32.7197 117.998 33.2443 117.403 33.6193C116.813 33.9943 116.123 34.1818 115.335 34.1818ZM115.335 32.9773C115.934 32.9773 116.426 32.8239 116.812 32.517C117.199 32.2102 117.485 31.8068 117.67 31.3068C117.856 30.8068 117.949 30.2652 117.949 29.6818C117.949 29.0985 117.856 28.5549 117.67 28.0511C117.485 27.5473 117.199 27.1402 116.812 26.8295C116.426 26.5189 115.934 26.3636 115.335 26.3636C114.737 26.3636 114.244 26.5189 113.858 26.8295C113.472 27.1402 113.186 27.5473 113 28.0511C112.814 28.5549 112.722 29.0985 112.722 29.6818C112.722 30.2652 112.814 30.8068 113 31.3068C113.186 31.8068 113.472 32.2102 113.858 32.517C114.244 32.8239 114.737 32.9773 115.335 32.9773ZM122.678 28.75V34H121.337V25.2727H122.632V26.6364H122.746C122.95 26.1932 123.261 25.8371 123.678 25.5682C124.094 25.2955 124.632 25.1591 125.291 25.1591C125.882 25.1591 126.399 25.2803 126.842 25.5227C127.286 25.7614 127.63 26.125 127.876 26.6136C128.123 27.0985 128.246 27.7121 128.246 28.4545V34H126.905V28.5455C126.905 27.8598 126.727 27.3258 126.371 26.9432C126.015 26.5568 125.526 26.3636 124.905 26.3636C124.477 26.3636 124.094 26.4564 123.757 26.642C123.424 26.8277 123.161 27.0985 122.967 27.4545C122.774 27.8106 122.678 28.2424 122.678 28.75ZM136.878 27.2273L135.673 27.5682C135.598 27.3674 135.486 27.1723 135.338 26.983C135.194 26.7898 134.997 26.6307 134.747 26.5057C134.497 26.3807 134.177 26.3182 133.787 26.3182C133.253 26.3182 132.808 26.4413 132.452 26.6875C132.099 26.9299 131.923 27.2386 131.923 27.6136C131.923 27.947 132.045 28.2102 132.287 28.4034C132.529 28.5966 132.908 28.7576 133.423 28.8864L134.719 29.2045C135.499 29.3939 136.08 29.6837 136.463 30.0739C136.846 30.4602 137.037 30.9583 137.037 31.5682C137.037 32.0682 136.893 32.5152 136.605 32.9091C136.321 33.303 135.923 33.6136 135.412 33.8409C134.901 34.0682 134.306 34.1818 133.628 34.1818C132.738 34.1818 132.001 33.9886 131.418 33.6023C130.834 33.2159 130.465 32.6515 130.31 31.9091L131.582 31.5909C131.704 32.0606 131.933 32.4129 132.27 32.6477C132.611 32.8826 133.056 33 133.605 33C134.23 33 134.726 32.8674 135.094 32.6023C135.465 32.3333 135.651 32.0114 135.651 31.6364C135.651 31.3333 135.545 31.0795 135.332 30.875C135.12 30.6667 134.795 30.5114 134.355 30.4091L132.901 30.0682C132.101 29.8788 131.514 29.5852 131.139 29.1875C130.768 28.786 130.582 28.2841 130.582 27.6818C130.582 27.1894 130.721 26.7538 130.997 26.375C131.277 25.9962 131.658 25.6989 132.139 25.483C132.624 25.267 133.173 25.1591 133.787 25.1591C134.651 25.1591 135.329 25.3485 135.821 25.7273C136.317 26.1061 136.67 26.6061 136.878 27.2273Z" fill="#333333"/>
<path d="M24 33H26V27H24V33ZM25 25C25.2833 25 25.5208 24.9042 25.7125 24.7125C25.9042 24.5208 26 24.2833 26 24C26 23.7167 25.9042 23.4792 25.7125 23.2875C25.5208 23.0958 25.2833 23 25 23C24.7167 23 24.4792 23.0958 24.2875 23.2875C24.0958 23.4792 24 23.7167 24 24C24 24.2833 24.0958 24.5208 24.2875 24.7125C24.4792 24.9042 24.7167 25 25 25ZM25 38C23.6167 38 22.3167 37.7375 21.1 37.2125C19.8833 36.6875 18.825 35.975 17.925 35.075C17.025 34.175 16.3125 33.1167 15.7875 31.9C15.2625 30.6833 15 29.3833 15 28C15 26.6167 15.2625 25.3167 15.7875 24.1C16.3125 22.8833 17.025 21.825 17.925 20.925C18.825 20.025 19.8833 19.3125 21.1 18.7875C22.3167 18.2625 23.6167 18 25 18C26.3833 18 27.6833 18.2625 28.9 18.7875C30.1167 19.3125 31.175 20.025 32.075 20.925C32.975 21.825 33.6875 22.8833 34.2125 24.1C34.7375 25.3167 35 26.6167 35 28C35 29.3833 34.7375 30.6833 34.2125 31.9C33.6875 33.1167 32.975 34.175 32.075 35.075C31.175 35.975 30.1167 36.6875 28.9 37.2125C27.6833 37.7375 26.3833 38 25 38ZM25 36C27.2333 36 29.125 35.225 30.675 33.675C32.225 32.125 33 30.2333 33 28C33 25.7667 32.225 23.875 30.675 22.325C29.125 20.775 27.2333 20 25 20C22.7667 20 20.875 20.775 19.325 22.325C17.775 23.875 17 25.7667 17 28C17 30.2333 17.775 32.125 19.325 33.675C20.875 35.225 22.7667 36 25 36Z" fill="#333333"/>
</svg>
