<svg width="288" height="56" viewBox="0 0 288 56" fill="none" xmlns="http://www.w3.org/2000/svg">
<rect x="0.5" y="0.5" width="287" height="55" rx="11.5" fill="#005BA9" stroke="#005BA9"/>
<path d="M48.2784 34V22.3636H50.0341V32.4886H55.3068V34H48.2784ZM59.7131 34.1932C59.16 34.1932 58.66 34.0909 58.2131 33.8864C57.7661 33.678 57.4119 33.3769 57.1506 32.983C56.893 32.589 56.7642 32.1061 56.7642 31.5341C56.7642 31.0417 56.8589 30.6364 57.0483 30.3182C57.2377 30 57.4934 29.7481 57.8153 29.5625C58.1373 29.3769 58.4972 29.2367 58.8949 29.142C59.2926 29.0473 59.6979 28.9754 60.1108 28.9261C60.6335 28.8655 61.0578 28.8163 61.3835 28.7784C61.7093 28.7367 61.946 28.6705 62.0938 28.5795C62.2415 28.4886 62.3153 28.3409 62.3153 28.1364V28.0966C62.3153 27.6004 62.1752 27.2159 61.8949 26.9432C61.6184 26.6705 61.2055 26.5341 60.6562 26.5341C60.0843 26.5341 59.6335 26.661 59.304 26.9148C58.9782 27.1648 58.7528 27.4432 58.6278 27.75L57.0312 27.3864C57.2206 26.8561 57.4972 26.428 57.8608 26.1023C58.2282 25.7727 58.6506 25.5341 59.1278 25.3864C59.6051 25.2348 60.107 25.1591 60.6335 25.1591C60.982 25.1591 61.3513 25.2008 61.7415 25.2841C62.1354 25.3636 62.5028 25.5114 62.8438 25.7273C63.1884 25.9432 63.4706 26.2519 63.6903 26.6534C63.91 27.0511 64.0199 27.5682 64.0199 28.2045V34H62.3608V32.8068H62.2926C62.1828 33.0265 62.018 33.2424 61.7983 33.4545C61.5786 33.6667 61.2964 33.8428 60.9517 33.983C60.607 34.1231 60.1941 34.1932 59.7131 34.1932ZM60.0824 32.8295C60.5521 32.8295 60.9536 32.7367 61.2869 32.5511C61.6241 32.3655 61.8797 32.1231 62.054 31.8239C62.232 31.5208 62.321 31.197 62.321 30.8523V29.7273C62.2604 29.7879 62.143 29.8447 61.9688 29.8977C61.7983 29.947 61.6032 29.9905 61.3835 30.0284C61.1638 30.0625 60.9498 30.0947 60.7415 30.125C60.5331 30.1515 60.3589 30.1742 60.2188 30.1932C59.8892 30.2348 59.5881 30.3049 59.3153 30.4034C59.0464 30.5019 58.8305 30.6439 58.6676 30.8295C58.5085 31.0114 58.429 31.2538 58.429 31.5568C58.429 31.9773 58.5843 32.2955 58.8949 32.5114C59.2055 32.7235 59.6013 32.8295 60.0824 32.8295ZM67.9815 28.8182V34H66.2827V25.2727H67.9134V26.6932H68.0213C68.2221 26.2311 68.5365 25.8598 68.9645 25.5795C69.3963 25.2992 69.9399 25.1591 70.5952 25.1591C71.1899 25.1591 71.7107 25.2841 72.1577 25.5341C72.6046 25.7803 72.9512 26.1477 73.1974 26.6364C73.4437 27.125 73.5668 27.7292 73.5668 28.4489V34H71.8679V28.6534C71.8679 28.0208 71.7031 27.5265 71.3736 27.1705C71.044 26.8106 70.5914 26.6307 70.0156 26.6307C69.6217 26.6307 69.2713 26.7159 68.9645 26.8864C68.6615 27.0568 68.4209 27.3068 68.2429 27.6364C68.0687 27.9621 67.9815 28.3561 67.9815 28.8182ZM79.5213 34.1761C78.6766 34.1761 77.9493 33.9848 77.3395 33.6023C76.7334 33.2159 76.2675 32.6837 75.9418 32.0057C75.616 31.3277 75.4531 30.5511 75.4531 29.6761C75.4531 28.7898 75.6198 28.0076 75.9531 27.3295C76.2865 26.6477 76.7562 26.1155 77.3622 25.733C77.9683 25.3504 78.6823 25.1591 79.5043 25.1591C80.1671 25.1591 80.758 25.2822 81.277 25.5284C81.7959 25.7708 82.2145 26.1117 82.5327 26.5511C82.8546 26.9905 83.0459 27.5038 83.1065 28.0909H81.4531C81.3622 27.6818 81.1539 27.3295 80.8281 27.0341C80.5062 26.7386 80.0743 26.5909 79.5327 26.5909C79.0592 26.5909 78.6444 26.7159 78.2884 26.9659C77.9361 27.2121 77.6615 27.5644 77.4645 28.0227C77.2675 28.4773 77.169 29.0152 77.169 29.6364C77.169 30.2727 77.2656 30.822 77.4588 31.2841C77.652 31.7462 77.9247 32.1042 78.277 32.358C78.633 32.6117 79.0516 32.7386 79.5327 32.7386C79.8546 32.7386 80.1463 32.6799 80.4077 32.5625C80.6728 32.4413 80.8944 32.2689 81.0724 32.0455C81.2543 31.822 81.3812 31.553 81.4531 31.2386H83.1065C83.0459 31.803 82.8622 32.3068 82.5554 32.75C82.2486 33.1932 81.8376 33.5417 81.3224 33.7955C80.8111 34.0492 80.2107 34.1761 79.5213 34.1761ZM88.6847 34.1761C87.8248 34.1761 87.0843 33.9924 86.4631 33.625C85.8456 33.2538 85.3684 32.733 85.0312 32.0625C84.6979 31.3883 84.5312 30.5985 84.5312 29.6932C84.5312 28.7992 84.6979 28.0114 85.0312 27.3295C85.3684 26.6477 85.8381 26.1155 86.4403 25.733C87.0464 25.3504 87.7547 25.1591 88.5653 25.1591C89.0578 25.1591 89.535 25.2405 89.9972 25.4034C90.4593 25.5663 90.8741 25.822 91.2415 26.1705C91.6089 26.5189 91.8987 26.9716 92.1108 27.5284C92.3229 28.0814 92.429 28.7538 92.429 29.5455V30.1477H85.4915V28.875H90.7642C90.7642 28.428 90.6733 28.0322 90.4915 27.6875C90.3097 27.339 90.054 27.0644 89.7244 26.8636C89.3987 26.6629 89.0161 26.5625 88.5767 26.5625C88.0994 26.5625 87.6828 26.6799 87.3267 26.9148C86.9744 27.1458 86.7017 27.4489 86.5085 27.8239C86.3191 28.1951 86.2244 28.5985 86.2244 29.0341V30.0284C86.2244 30.6117 86.3267 31.108 86.5312 31.517C86.7396 31.9261 87.0294 32.2386 87.4006 32.4545C87.7718 32.6667 88.2055 32.7727 88.7017 32.7727C89.0237 32.7727 89.3172 32.7273 89.5824 32.6364C89.8475 32.5417 90.0767 32.4015 90.2699 32.2159C90.4631 32.0303 90.6108 31.8011 90.7131 31.5284L92.321 31.8182C92.1922 32.2917 91.9612 32.7064 91.6278 33.0625C91.2983 33.4148 90.8835 33.6894 90.3835 33.8864C89.8873 34.0795 89.321 34.1761 88.6847 34.1761ZM94.3139 34V25.2727H95.956V26.6591H96.0469C96.206 26.1894 96.4863 25.8201 96.8878 25.5511C97.2931 25.2784 97.7514 25.142 98.2628 25.142C98.3688 25.142 98.4938 25.1458 98.6378 25.1534C98.7855 25.161 98.901 25.1705 98.9844 25.1818V26.8068C98.9162 26.7879 98.795 26.767 98.6207 26.7443C98.4465 26.7178 98.2723 26.7045 98.098 26.7045C97.6965 26.7045 97.3385 26.7898 97.0241 26.9602C96.7135 27.1269 96.4673 27.3598 96.2855 27.6591C96.1037 27.9545 96.0128 28.2917 96.0128 28.6705V34H94.3139ZM106.388 22.3636V34H104.689V22.3636H106.388ZM112.435 34.1761C111.575 34.1761 110.834 33.9924 110.213 33.625C109.596 33.2538 109.118 32.733 108.781 32.0625C108.448 31.3883 108.281 30.5985 108.281 29.6932C108.281 28.7992 108.448 28.0114 108.781 27.3295C109.118 26.6477 109.588 26.1155 110.19 25.733C110.796 25.3504 111.505 25.1591 112.315 25.1591C112.808 25.1591 113.285 25.2405 113.747 25.4034C114.209 25.5663 114.624 25.822 114.991 26.1705C115.359 26.5189 115.649 26.9716 115.861 27.5284C116.073 28.0814 116.179 28.7538 116.179 29.5455V30.1477H109.241V28.875H114.514C114.514 28.428 114.423 28.0322 114.241 27.6875C114.06 27.339 113.804 27.0644 113.474 26.8636C113.149 26.6629 112.766 26.5625 112.327 26.5625C111.849 26.5625 111.433 26.6799 111.077 26.9148C110.724 27.1458 110.452 27.4489 110.259 27.8239C110.069 28.1951 109.974 28.5985 109.974 29.0341V30.0284C109.974 30.6117 110.077 31.108 110.281 31.517C110.49 31.9261 110.779 32.2386 111.151 32.4545C111.522 32.6667 111.955 32.7727 112.452 32.7727C112.774 32.7727 113.067 32.7273 113.332 32.6364C113.598 32.5417 113.827 32.4015 114.02 32.2159C114.213 32.0303 114.361 31.8011 114.463 31.5284L116.071 31.8182C115.942 32.2917 115.711 32.7064 115.378 33.0625C115.048 33.4148 114.634 33.6894 114.134 33.8864C113.637 34.0795 113.071 34.1761 112.435 34.1761ZM125.974 34.1761C125.13 34.1761 124.402 33.9848 123.793 33.6023C123.187 33.2159 122.721 32.6837 122.395 32.0057C122.069 31.3277 121.906 30.5511 121.906 29.6761C121.906 28.7898 122.073 28.0076 122.406 27.3295C122.74 26.6477 123.209 26.1155 123.815 25.733C124.421 25.3504 125.135 25.1591 125.957 25.1591C126.62 25.1591 127.211 25.2822 127.73 25.5284C128.249 25.7708 128.668 26.1117 128.986 26.5511C129.308 26.9905 129.499 27.5038 129.56 28.0909H127.906C127.815 27.6818 127.607 27.3295 127.281 27.0341C126.959 26.7386 126.527 26.5909 125.986 26.5909C125.512 26.5909 125.098 26.7159 124.741 26.9659C124.389 27.2121 124.115 27.5644 123.918 28.0227C123.721 28.4773 123.622 29.0152 123.622 29.6364C123.622 30.2727 123.719 30.822 123.912 31.2841C124.105 31.7462 124.378 32.1042 124.73 32.358C125.086 32.6117 125.505 32.7386 125.986 32.7386C126.308 32.7386 126.599 32.6799 126.861 32.5625C127.126 32.4413 127.348 32.2689 127.526 32.0455C127.707 31.822 127.834 31.553 127.906 31.2386H129.56C129.499 31.803 129.315 32.3068 129.009 32.75C128.702 33.1932 128.291 33.5417 127.776 33.7955C127.264 34.0492 126.664 34.1761 125.974 34.1761ZM135.053 34.1761C134.234 34.1761 133.52 33.9886 132.911 33.6136C132.301 33.2386 131.827 32.714 131.49 32.0398C131.153 31.3655 130.984 30.5777 130.984 29.6761C130.984 28.7708 131.153 27.9792 131.49 27.3011C131.827 26.6231 132.301 26.0966 132.911 25.7216C133.52 25.3466 134.234 25.1591 135.053 25.1591C135.871 25.1591 136.585 25.3466 137.195 25.7216C137.804 26.0966 138.278 26.6231 138.615 27.3011C138.952 27.9792 139.121 28.7708 139.121 29.6761C139.121 30.5777 138.952 31.3655 138.615 32.0398C138.278 32.714 137.804 33.2386 137.195 33.6136C136.585 33.9886 135.871 34.1761 135.053 34.1761ZM135.058 32.75C135.589 32.75 136.028 32.6098 136.376 32.3295C136.725 32.0492 136.982 31.6761 137.149 31.2102C137.32 30.7443 137.405 30.2311 137.405 29.6705C137.405 29.1136 137.32 28.6023 137.149 28.1364C136.982 27.6667 136.725 27.2898 136.376 27.0057C136.028 26.7216 135.589 26.5795 135.058 26.5795C134.524 26.5795 134.081 26.7216 133.729 27.0057C133.38 27.2898 133.121 27.6667 132.95 28.1364C132.784 28.6023 132.7 29.1136 132.7 29.6705C132.7 30.2311 132.784 30.7443 132.95 31.2102C133.121 31.6761 133.38 32.0492 133.729 32.3295C134.081 32.6098 134.524 32.75 135.058 32.75ZM144.284 34.1705C143.58 34.1705 142.951 33.9905 142.398 33.6307C141.848 33.267 141.417 32.75 141.102 32.0795C140.792 31.4053 140.636 30.5966 140.636 29.6534C140.636 28.7102 140.794 27.9034 141.108 27.233C141.426 26.5625 141.862 26.0492 142.415 25.6932C142.968 25.3371 143.595 25.1591 144.295 25.1591C144.837 25.1591 145.273 25.25 145.602 25.4318C145.936 25.6098 146.193 25.8182 146.375 26.0568C146.561 26.2955 146.705 26.5057 146.807 26.6875H146.909V22.3636H148.608V34H146.949V32.642H146.807C146.705 32.8277 146.557 33.0398 146.364 33.2784C146.174 33.517 145.913 33.7254 145.58 33.9034C145.246 34.0814 144.814 34.1705 144.284 34.1705ZM144.659 32.7216C145.148 32.7216 145.561 32.5928 145.898 32.3352C146.239 32.0739 146.496 31.7121 146.67 31.25C146.848 30.7879 146.938 30.25 146.938 29.6364C146.938 29.0303 146.85 28.5 146.676 28.0455C146.502 27.5909 146.246 27.2367 145.909 26.983C145.572 26.7292 145.155 26.6023 144.659 26.6023C144.148 26.6023 143.722 26.7348 143.381 27C143.04 27.2652 142.782 27.6269 142.608 28.0852C142.438 28.5436 142.352 29.0606 142.352 29.6364C142.352 30.2197 142.439 30.7443 142.614 31.2102C142.788 31.6761 143.045 32.0455 143.386 32.3182C143.731 32.5871 144.155 32.7216 144.659 32.7216ZM154.794 34.1761C153.934 34.1761 153.194 33.9924 152.572 33.625C151.955 33.2538 151.478 32.733 151.141 32.0625C150.807 31.3883 150.641 30.5985 150.641 29.6932C150.641 28.7992 150.807 28.0114 151.141 27.3295C151.478 26.6477 151.947 26.1155 152.55 25.733C153.156 25.3504 153.864 25.1591 154.675 25.1591C155.167 25.1591 155.644 25.2405 156.107 25.4034C156.569 25.5663 156.983 25.822 157.351 26.1705C157.718 26.5189 158.008 26.9716 158.22 27.5284C158.432 28.0814 158.538 28.7538 158.538 29.5455V30.1477H151.601V28.875H156.874C156.874 28.428 156.783 28.0322 156.601 27.6875C156.419 27.339 156.163 27.0644 155.834 26.8636C155.508 26.6629 155.125 26.5625 154.686 26.5625C154.209 26.5625 153.792 26.6799 153.436 26.9148C153.084 27.1458 152.811 27.4489 152.618 27.8239C152.429 28.1951 152.334 28.5985 152.334 29.0341V30.0284C152.334 30.6117 152.436 31.108 152.641 31.517C152.849 31.9261 153.139 32.2386 153.51 32.4545C153.881 32.6667 154.315 32.7727 154.811 32.7727C155.133 32.7727 155.427 32.7273 155.692 32.6364C155.957 32.5417 156.186 32.4015 156.379 32.2159C156.572 32.0303 156.72 31.8011 156.822 31.5284L158.43 31.8182C158.302 32.2917 158.071 32.7064 157.737 33.0625C157.408 33.4148 156.993 33.6894 156.493 33.8864C155.997 34.0795 155.43 34.1761 154.794 34.1761Z" fill="white"/>
<path d="M21 36V22L32 29L21 36Z" fill="white"/>
</svg>
